<svg width="18" height="18" viewBox="0 0 18 18" xmlns="http://www.w3.org/2000/svg">
<g clip-path="url(#clip0_1260_18348)">
<path d="M1.19263 7.54139L3.33676 7.10668C5.24083 6.72064 6.72063 5.24082 7.10666 3.33673L7.54137 1.19264C7.68599 0.479274 8.27214 0 9 0C9.72786 0 10.3141 0.479345 10.4587 1.19264L10.8934 3.33673C11.2794 5.24082 12.7592 6.72064 14.6633 7.10668L16.8074 7.54139C17.5207 7.68601 18 8.27224 18 9.00004C18 9.72783 17.5207 10.3141 16.8074 10.4587L14.6633 10.8933C12.7592 11.2794 11.2794 12.7592 10.8934 14.6633L10.4587 16.8074C10.3141 17.5207 9.72786 18 9 18C8.27214 18 7.68599 17.5207 7.54137 16.8074L7.10666 14.6633C6.72063 12.7592 5.24083 11.2793 3.33676 10.8933L1.19263 10.4587C0.479269 10.3141 0 9.72783 0 9.00004C0 8.27224 0.479269 7.68608 1.19263 7.54139Z" />
</g>
<defs>
<clipPath id="clip0_1260_18348">
<rect width="18" height="18"  transform="matrix(-1 0 0 1 18 0)"/>
</clipPath>
</defs>
</svg>
