<svg width="24" height="24" viewBox="0 0 24 24" fill="none" xmlns="http://www.w3.org/2000/svg">
<g opacity="0.35">
<path d="M5.6999 20.1L5.6999 3.8C5.6999 2.8 4.8999 1.9 3.7999 1.9C2.7999 1.9 1.8999 2.7 1.8999 3.8L1.8999 20.1C1.9999 21.2 2.7999 22 3.8999 22C4.8999 22 5.6999 21.2 5.6999 20.1Z" fill="#CDCDCD"/>
<path d="M12.8999 3.9L12.8999 20.1C12.8999 21.1 13.6999 22 14.7999 22C15.7999 22 16.6999 21.2 16.6999 20.1V3.8C16.6999 2.8 15.8999 1.9 14.7999 1.9C13.6999 2 12.8999 2.8 12.8999 3.9Z" fill="#CDCDCD"/>
<path d="M11.0998 20.1V10.1C11.0998 9.1 10.2998 8.2 9.1998 8.2C8.1998 8.2 7.2998 9 7.2998 10.1L7.2998 20.1C7.3998 21.2 8.2998 22 9.2998 22C10.2998 22 11.0998 21.2 11.0998 20.1Z" fill="#CDCDCD"/>
<path d="M18.2998 10.1996V20.1996C18.2998 21.1996 19.0998 22.0996 20.1998 22.0996C21.1998 22.0996 22.0998 21.2996 22.0998 20.1996V10.1996C22.0998 9.19961 21.2998 8.29961 20.1998 8.29961C19.0998 8.29961 18.2998 9.09961 18.2998 10.1996Z" fill="#CDCDCD"/>
</g>
</svg>
