<svg width="24" height="25" viewBox="0 0 24 25" fill="none" xmlns="http://www.w3.org/2000/svg">
<path fill-rule="evenodd" clip-rule="evenodd" d="M17.373 12.3929L12.011 16.7079L6.63999 12.2319C6.21499 11.8779 5.58499 11.9359 5.23199 12.3599C4.87799 12.7849 4.93499 13.4149 5.35999 13.7679L11.36 18.7679C11.545 18.9229 11.772 18.9999 12 18.9999C12.222 18.9999 12.444 18.9269 12.627 18.7799L18.627 13.9519C19.057 13.6049 19.125 12.9759 18.779 12.5449C18.434 12.1159 17.803 12.0479 17.373 12.3929Z" fill="#DFDFDF" fill-opacity="0.65"/>
<path fill-rule="evenodd" clip-rule="evenodd" d="M17.3732 18.3929L12.0112 22.7079L6.64023 18.2319C6.21523 17.8779 5.58523 17.9359 5.23223 18.3599C4.87823 18.7849 4.93523 19.4149 5.36023 19.7679L11.3602 24.7679C11.5452 24.9229 11.7722 24.9999 12.0002 24.9999C12.2222 24.9999 12.4442 24.9269 12.6272 24.7799L18.6272 19.9519C19.0572 19.6049 19.1252 18.9759 18.7792 18.5449C18.4342 18.1159 17.8032 18.0479 17.3732 18.3929Z" fill="#DFDFDF" fill-opacity="0.35"/>
<path fill-rule="evenodd" clip-rule="evenodd" d="M11.3599 11.7683C11.5449 11.9233 11.7729 12.0003 11.9999 12.0003C12.2219 12.0003 12.4439 11.9263 12.6269 11.7793L18.6269 6.95131C19.0569 6.60431 19.1259 5.97531 18.7789 5.54531C18.4339 5.11531 17.8029 5.04731 17.3729 5.39331L12.0109 9.70731L6.63986 5.23231C6.21486 4.87931 5.58586 4.93531 5.23186 5.36031C4.87886 5.78431 4.93586 6.41431 5.35986 6.76831L11.3599 11.7683Z" fill="#DFDFDF"/>
</svg>
