<svg width="1468" height="1331" viewBox="0 0 1468 1331" fill="none" xmlns="http://www.w3.org/2000/svg">
<path d="M96.3364 1052.53C96.3364 1052.53 -9.78176 802.73 124.426 613.95C258.633 425.174 176.781 257.822 412.425 91.2156C715.307 -122.928 1007.45 88.3596 1094.57 231.61C1181.68 374.861 1477.58 301.734 1391.59 709.345C1324.88 1025.54 1374.65 1039.41 1374.65 1039.41L96.3364 1052.53Z" fill="black"/>
<path d="M160.276 984.954C160.276 984.954 -28.0461 886.564 17.3327 665.331C62.7087 444.099 247.513 391.605 323.512 407.843C465.961 438.283 233.23 528.098 177.637 373.939C107.883 180.515 356.594 34.0707 587.145 71.9695C735.316 96.3276 806.839 167.257 938.551 211.828C1069.79 256.238 1124.84 196.759 1072.55 162.288C1022.91 129.562 842.696 182.949 904.573 256.124C989.299 356.319 1193.49 201.082 1351.74 373.939C1509.99 546.796 1372.61 764.111 1250.95 782.234C1129.29 800.354 1182.64 625.719 1372.61 764.111C1562.59 902.506 1322.62 1052.53 1322.62 1052.53" stroke="#BABBE4" stroke-width="1.33333" stroke-miterlimit="10"/>
<path d="M1453.4 1066.37H13.8369C6.19583 1066.37 0 1060.17 0 1052.53C0 1044.89 6.19583 1038.69 13.8369 1038.69H1467.24V1052.53C1467.24 1060.17 1461.04 1066.37 1453.4 1066.37Z" fill="#596ABC"/>
<path d="M531.165 1066.37H13.8369C6.19583 1066.37 0 1060.17 0 1052.53V1038.69H545.001V1052.53C545.001 1060.17 538.808 1066.37 531.165 1066.37Z" fill="#232858"/>
<path d="M746.224 511.209C684.577 629.676 615.31 677.935 615.31 677.935L675.129 773.439L779.589 664.891L746.224 511.209Z" fill="#232858"/>
<path d="M899.078 482.931L746.224 511.207C736.542 800.402 732.914 1038.66 732.914 1038.66H1007.28C1007.28 1038.66 1015.24 595.819 971.104 499.198L899.078 482.931Z" fill="#232858"/>
<path d="M881.328 630.305L955.795 624.005" stroke="#596ABC" stroke-width="5.33333" stroke-miterlimit="10"/>
<path d="M847.146 568.153C847.146 568.153 894.411 890.69 853.286 1021.2" stroke="#596ABC" stroke-width="1.33333" stroke-miterlimit="10"/>
<path d="M797.657 729.712C797.657 729.712 843.309 748.089 902.496 750.033C961.679 751.977 924.855 783.469 837.114 777.497" stroke="#596ABC" stroke-width="1.33333" stroke-miterlimit="10"/>
<path d="M809.422 471.174L847.145 571.397L899.078 482.932L864.85 427.001L809.422 471.174Z" fill="#F68B87"/>
<path d="M847.146 571.397L917.565 551.956L899.078 482.932L847.146 571.397Z" fill="#596ABC"/>
<path d="M817.805 493.442L779.588 536.131L847.145 571.397L817.805 493.442Z" fill="#596ABC"/>
<path d="M675.129 773.439C675.129 773.439 697.449 726.898 649.521 666.945C622.947 633.701 610.704 576.335 610.704 576.335L570.774 582.407L607.335 773.439H675.129" fill="#F68B87"/>
<path d="M562.614 516.432L546.266 531.294L568.119 550.585L499.686 549.42L498.219 572.902L570.774 582.405L610.704 576.333L562.614 516.432Z" fill="#F68B87"/>
<path d="M574.578 553.005L508.913 525.924L504.674 537.588L559.479 560.619L574.578 553.005" fill="#F68B87"/>
<path d="M971.104 499.199C971.104 499.199 1059.31 549.421 1087.16 737.539L984.83 762.231L971.104 499.199Z" fill="#232858"/>
<path d="M779.537 348.698L746.224 433.94L771.699 441.778L779.537 489.79L860.865 471.173L872.62 340.86L779.537 348.698" fill="#F68B87"/>
<path d="M833.812 368.955H771.624L778.404 350.579L833.812 347.151V368.955" fill="#F35F7E"/>
<path d="M866.311 407.843C866.311 407.843 826.63 399.635 826.63 358.588C826.63 358.588 767.758 366.601 747.434 334.645C723.359 296.792 760.147 253.291 790.533 262.129C790.533 262.129 771.387 281.106 800.464 283.335C821.197 284.929 859.092 257.342 872.62 284.02C872.62 284.02 976.992 307.859 899.078 405.107L866.311 407.843" fill="#202551"/>
<path d="M826.63 355.342C826.63 355.342 747.938 370.548 731.476 314.117C721.856 281.122 754.922 262.333 754.922 262.333" stroke="#202551" stroke-width="2.66667" stroke-miterlimit="10"/>
<path d="M822.927 404.084C821.509 420.429 807.108 432.532 790.763 431.114C774.415 429.695 762.316 415.295 763.734 398.947C765.152 382.602 779.553 370.502 795.901 371.92C812.246 373.339 824.346 387.74 822.927 404.084Z" stroke="#202551" stroke-width="0.666667" stroke-miterlimit="10"/>
<path d="M821.44 391.904L863.75 394.222" stroke="#202551" stroke-width="0.666667" stroke-miterlimit="10"/>
<path d="M917.565 415.323C917.565 433.722 892.911 448.639 874.515 448.639C856.116 448.639 850.936 433.722 850.936 415.323C850.936 396.927 865.853 382.01 884.252 382.01C902.648 382.01 917.565 396.927 917.565 415.323Z" fill="#F68B87"/>
<path d="M1074.95 740.488V894.105H998.351L991.977 760.507L1074.95 740.488Z" fill="#F68B87"/>
<path d="M740.258 705.754L743.474 598.718L693.856 753.98L740.258 705.754Z" fill="#232756"/>
<path d="M813.366 481.368L860.865 471.174L821.924 504.386L813.366 481.368Z" fill="#F35F7E"/>
<path d="M790.964 403.464C790.964 410.013 788.416 415.323 785.275 415.323C782.133 415.323 779.588 410.013 779.588 403.464C779.588 396.914 782.133 391.604 785.275 391.604C788.416 391.604 790.964 396.914 790.964 403.464Z" fill="#202551"/>
<path d="M800.714 374.624C800.714 358.734 788.063 369.428 788.063 369.428L800.714 374.624Z" fill="#202551"/>
<path d="M788.063 444.971L806.16 440.154C806.16 440.154 813.907 507.267 788.063 444.971Z" fill="white"/>
<path d="M398.144 745.782C398.144 745.782 520.22 726.896 522.615 939.774C523.005 974.32 545 1038.69 545 1038.69H434.371L398.144 745.782Z" fill="#4545A4"/>
<path d="M270.498 726.896L196.716 744.312L219.225 1038.69H506.306C506.306 1038.69 496.677 805.783 388.417 735.906L270.498 726.896Z" fill="#5248A7"/>
<path d="M196.716 744.312C120.666 761.656 138.467 820.025 153.154 939.885C115.195 970.711 151.611 984.589 151.611 984.589C109.924 1028.77 161.928 1038.69 161.928 1038.69H300.753C300.753 1038.69 272.819 726.954 196.716 744.312" fill="#5248A7"/>
<path d="M292.5 970.699L259.184 817.77" stroke="#4545A4" stroke-width="1.33333" stroke-miterlimit="10"/>
<path d="M161.928 1038.69C161.928 1038.69 185.365 984.878 259.447 957.826C320.87 935.393 410.718 993.622 468.233 938.294L478.885 1000.59L300.754 1038.69H161.928Z" fill="#F68B87"/>
<path d="M406.132 575.282L461.053 658.882L425.813 671.461L419.718 739.401L313.801 702.603L323.781 564.409L406.132 575.282" fill="#F68B87"/>
<path d="M324.638 663.097L270.498 726.896L339.928 811.982L371.241 712.602L324.638 663.097" fill="#F35F7E"/>
<path d="M342.741 623.597L420.214 596.72L406.131 575.283L329.6 583.247L342.741 623.597Z" fill="#F35F7E"/>
<path d="M336.052 652.879C336.052 652.879 359.508 699.843 343.19 609.32C343.19 609.32 365.448 611.819 382.877 582.443C382.877 582.443 377.46 630.312 428.594 582.443C479.728 534.571 414.722 497.117 335.293 511.209C266.444 523.425 197.546 562.324 298.245 694.205L336.052 652.879Z" fill="#202551"/>
<path d="M323.512 671.553C318.228 678.639 309.15 685.068 299.712 686.441C280.835 689.193 262.4 674.29 259.648 655.416C256.902 636.537 266.435 626.735 285.311 623.986C295.918 622.441 308.205 625.586 317.42 631.99C320.204 635.462 323.512 671.553 323.512 671.553" fill="#F68B87"/>
<path d="M400.205 632.362C401.954 638.814 401.081 644.666 398.254 645.435C395.427 646.201 391.718 641.593 389.965 635.144C388.216 628.688 389.089 622.839 391.916 622.07C394.739 621.304 398.452 625.913 400.205 632.362Z" fill="#202551"/>
<path d="M376.759 617.368C376.759 617.368 374.007 601.845 388.417 609.319L376.759 617.368Z" fill="#202551"/>
<path d="M261.829 729.509L274.399 715.072L269.787 704.368L298.245 694.203L379.868 735.25L382.877 766.596L369.063 762.231L346.513 846.285L261.829 729.509" fill="#5248A7"/>
<path d="M335.54 750.03L382.877 766.596L379.868 735.25" stroke="#4545A4" stroke-width="1.33333" stroke-miterlimit="10"/>
<path d="M343.19 609.319C343.19 609.319 352.713 664.74 366.639 676.136C371.212 679.878 379.868 670.355 419.718 669.557C444.086 669.07 444.063 754.121 411.73 751.68C379.398 749.242 330.263 729.084 322.902 667.093C316.44 612.714 343.19 609.319 343.19 609.319Z" fill="#202551"/>
<path d="M382.877 686.439C382.877 686.439 391.095 701.742 407.293 691.379" stroke="#B9BFBB" stroke-width="1.33333" stroke-miterlimit="10"/>
<path d="M567.651 1003.69H295.126V1023.89C295.126 1032.06 301.756 1038.69 309.935 1038.69H567.651C575.83 1038.69 582.461 1032.06 582.461 1023.89V1018.5C582.461 1010.32 575.83 1003.69 567.651 1003.69Z" fill="#232858"/>
<path d="M788.984 801.282H471.968C462.546 801.282 454.591 808.282 453.4 817.63L427.861 1017.6C426.429 1028.79 435.15 1038.69 446.429 1038.69H763.445C772.867 1038.69 780.822 1031.69 782.016 1022.34L807.556 822.372C808.984 811.184 800.266 801.282 788.984 801.282" fill="#232858"/>
<path d="M804.327 801.282H487.31C477.892 801.282 469.937 808.282 468.742 817.63L443.203 1017.6C441.775 1028.79 450.492 1038.69 461.774 1038.69H778.79C788.209 1038.69 796.164 1031.69 797.358 1022.34L822.898 822.372C824.326 811.184 815.608 801.282 804.327 801.282" fill="#596ABC"/>
<path d="M664.318 919.987C662.501 937.257 647.032 951.255 629.762 951.255C612.496 951.255 599.968 937.257 601.782 919.987C603.6 902.72 619.068 888.722 636.335 888.722C653.604 888.722 666.132 902.72 664.318 919.987Z" fill="white"/>
<path d="M797.413 1037H402.811" stroke="#232858" stroke-width="1.33333" stroke-miterlimit="10"/>
<path d="M971.805 769.387L1102.8 771.873L1073.1 611.625L1003.45 619.509C1003.45 619.509 972.072 665.82 996.848 701.827C1024.8 742.452 968.927 743.967 971.805 769.387" fill="#202551"/>
<path d="M1003.45 619.511C1003.45 619.511 972.072 665.822 996.848 701.828C1024.8 742.454 968.927 743.969 971.805 769.389" stroke="#5E6CBD" stroke-width="2.66667" stroke-miterlimit="10"/>
<path d="M1029.58 750.031C1029.58 750.031 969.978 808.519 938.551 1028.92H1004.9L1029.58 750.031" fill="#5E6CBD"/>
<path d="M1187.1 733.741L1161.16 1028.92H968.466L992.454 916.182C992.454 916.182 919.091 877.907 1029.58 750.031L1057.04 735.906L1176.35 726.896L1187.1 733.741" fill="#BABBE4"/>
<path d="M1029.58 882.139C1029.58 882.139 1018.03 901.927 1029.13 917.808L1012.78 1028.92" stroke="#5E6CBD" stroke-width="1.33333" stroke-miterlimit="10"/>
<path d="M1002.65 916.691L1114.26 919.985" stroke="#5E6CBD" stroke-width="1.33333" stroke-miterlimit="10"/>
<path d="M1136.27 972.257L1124.46 830.282" stroke="#5E6CBD" stroke-width="1.33333" stroke-miterlimit="10"/>
<path d="M1187.1 733.741C1187.1 733.741 1197.74 747.129 1210.06 778.173C1227.53 822.193 1248.37 901.716 1247 1028.92H1161.16L1187.1 733.741" fill="#BABBE4"/>
<path d="M1247 1038.66C1247 1038.66 1204.11 940.575 1096.24 968.643C978.456 999.291 934.718 993.563 934.718 993.563L925.79 1038.66H1247Z" fill="#F68B87"/>
<path d="M1134.72 948.031L1096.45 956.592L1183.39 1038.66H1265.33C1265.33 1038.66 1230.01 953.019 1134.72 948.031Z" fill="#5E6CBD"/>
<path d="M1137.09 973.488L1155.32 967.919" stroke="#BABBE4" stroke-width="1.33333" stroke-miterlimit="10"/>
<path d="M934.718 993.563L878.748 981.992L838.629 1038.66H925.79L934.718 993.563" fill="#F68B87"/>
<path d="M1029.58 882.14L1133.58 778.138L1114.26 769.015L1187.1 733.742L1153.65 712.454H1075.8L1029.58 770.232L1042.35 773.438L1029.58 782.396V882.14" fill="#5E6CBD"/>
<path d="M1102.29 747.808L1136.27 724.329L1099.59 642.326L1042.74 678.028L1058.76 746.052L1029.58 882.14L1102.29 747.808Z" fill="#F68B87"/>
<path d="M1047.32 697.457L1087.21 676.656L1051.6 715.623L1047.32 697.457Z" fill="#F35F7E"/>
<path d="M974.438 578.734L957.019 675.28H983.149L1012.49 715.623L1087.21 676.656L1034.95 560.211L974.438 578.734" fill="#F68B87"/>
<path d="M970.215 602.145L968.466 612.745L1037.38 603.346L1036.32 590.14L970.215 602.145" fill="#F35F7E"/>
<path d="M1164.91 571.398C1147.66 524.635 1126.57 506.609 1126.57 506.606C1084.29 464.595 1012.03 511.208 1012.03 511.208C919.428 488.794 957.018 603.763 957.018 603.763L1032.43 594.513C1042.97 657.773 1080.69 625.739 1080.69 625.739L1098.27 657.464C1098.28 657.464 1080.53 673.147 1099.03 700.033C1114.26 722.168 1077.79 729.711 1087.21 753.277L1232.98 723.061C1232.98 627.157 1196.09 655.913 1164.91 571.398" fill="#202551"/>
<path d="M951.108 604.506C951.108 604.506 937.772 538.867 962.27 517.508C975.044 506.366 1015.27 511.208 1015.27 511.208" stroke="#5E6CBD" stroke-width="2.66667" stroke-miterlimit="10"/>
<path d="M1242.53 720.309C1242.53 720.309 1254.17 676.655 1190.74 627.157" stroke="#202551" stroke-width="2.66667" stroke-miterlimit="10"/>
<path d="M1114.26 630.122C1114.26 647.466 1100.2 661.526 1082.86 661.526C1065.52 661.526 1051.46 647.466 1051.46 630.122C1051.46 612.778 1065.52 598.718 1082.86 598.718C1100.2 598.718 1114.26 612.778 1114.26 630.122Z" fill="#F68B87"/>
<path d="M1002.65 671.726L1022.12 666.945C1022.12 666.945 1028.95 722.467 1002.65 671.726Z" fill="white"/>
<path d="M986.437 638.915C986.437 638.915 992.636 601.149 1006.19 638.915" stroke="#232858" stroke-width="0.666667" stroke-miterlimit="10"/>
<path d="M991.22 610.189C991.22 610.189 998.766 597.408 1007.71 610.189H991.22Z" fill="#202551"/>
<path d="M698.293 269.982C687.001 238.571 651.491 222.84 620.366 236.264C593.577 247.818 579.381 278.203 587.689 306.167C592.334 321.801 602.824 333.894 615.959 340.95C628.081 347.458 638.489 356.75 646.117 368.207L648.314 371.511L691.925 355.831L691.519 351.901C690.081 337.984 692.516 324.057 697.66 311.049C702.681 298.349 703.278 283.841 698.293 269.982Z" fill="#BABBE4"/>
<path d="M698.293 269.982C687.001 238.571 651.491 222.84 620.366 236.264C593.577 247.818 579.381 278.203 587.689 306.167C592.334 321.801 602.824 333.894 615.959 340.95C628.081 347.458 638.489 356.75 646.117 368.207L648.314 371.511L691.925 355.831L691.519 351.901C690.081 337.984 692.516 324.057 697.66 311.049C702.681 298.349 703.278 283.841 698.293 269.982Z" fill="#BABBE4"/>
<path d="M658.294 358.652L623.531 309.624C623.531 309.624 624.164 299.696 635.075 301.27C645.987 302.841 652.501 320.062 644.711 317.284C636.925 314.506 634.173 294.263 648.905 291.177C663.64 288.09 668.56 321.562 660.42 315.113C652.283 308.661 653.997 287.353 669.777 287.175L679.034 357.886" stroke="white" stroke-width="1.33333" stroke-miterlimit="10"/>
<path d="M690.913 389.344L670.436 396.705C662.647 399.505 654.066 395.461 651.268 387.675L646.938 375.637C644.137 367.848 648.181 359.267 655.967 356.466L676.447 349.105C684.233 346.304 692.815 350.348 695.616 358.134L699.945 370.172C702.743 377.961 698.702 386.543 690.913 389.344Z" fill="#202551"/>
<path d="M706.605 368.289L644.929 390.463L634.105 360.357L695.781 338.183L706.605 368.289Z" fill="#596ABC"/>
<path d="M642.037 216.602L635.884 181.325" stroke="#BABBE4" stroke-width="1.33333" stroke-miterlimit="10"/>
<path d="M597.592 237.615L568.128 208.837" stroke="#BABBE4" stroke-width="1.33333" stroke-miterlimit="10"/>
<path d="M566.885 289.894L533.271 292.299" stroke="#BABBE4" stroke-width="1.33333" stroke-miterlimit="10"/>
<path d="M690.494 235.933L705.628 207.875" stroke="#BABBE4" stroke-width="1.33333" stroke-miterlimit="10"/>
<path d="M1163.83 495.086H1372.29C1379.54 495.086 1386.48 489.208 1387.8 481.961L1409.34 363.117C1410.65 355.866 1405.84 349.992 1398.59 349.992H1190.13C1182.89 349.992 1175.94 355.866 1174.63 363.117L1153.09 481.961C1151.77 489.208 1156.59 495.086 1163.83 495.086" fill="#232756"/>
<path d="M1308.99 422.539C1307.62 430.069 1312.62 436.171 1320.15 436.171C1327.68 436.171 1334.89 430.069 1336.25 422.539C1337.62 415.013 1332.62 408.911 1325.09 408.911C1317.56 408.911 1310.35 415.013 1308.99 422.539Z" fill="white"/>
<path d="M1267.58 422.539C1266.22 430.069 1271.21 436.171 1278.74 436.171C1286.27 436.171 1293.48 430.069 1294.85 422.539C1296.21 415.013 1291.21 408.911 1283.68 408.911C1276.16 408.911 1268.95 415.013 1267.58 422.539Z" fill="white"/>
<path d="M1226.18 422.539C1224.81 430.069 1229.81 436.171 1237.34 436.171C1244.87 436.171 1252.08 430.069 1253.44 422.539C1254.8 415.013 1249.81 408.911 1242.28 408.911C1234.75 408.911 1227.54 415.013 1226.18 422.539Z" fill="white"/>
<path d="M1276.02 487.271L1203.59 530.317L1216.57 483.876L1276.02 487.271Z" fill="#232756"/>
<path d="M492.286 477.469H283.828C276.581 477.469 269.638 471.594 268.324 464.344L246.783 345.5C245.468 338.252 250.282 332.375 257.529 332.375H465.99C473.237 332.375 480.18 338.252 481.491 345.5L503.032 464.344C504.346 471.594 499.536 477.469 492.286 477.469" fill="#BABBE4"/>
<path d="M347.133 404.925C348.496 412.452 343.501 418.554 335.975 418.554C328.445 418.554 321.237 412.452 319.87 404.925C318.507 397.396 323.502 391.291 331.032 391.291C338.558 391.291 345.77 397.396 347.133 404.925Z" fill="white"/>
<path d="M388.54 404.925C389.903 412.452 384.908 418.554 377.379 418.554C369.852 418.554 362.64 412.452 361.277 404.925C359.911 397.396 364.909 391.291 372.436 391.291C379.965 391.291 387.174 397.396 388.54 404.925Z" fill="white"/>
<path d="M429.944 404.925C431.311 412.452 426.313 418.554 418.786 418.554C411.256 418.554 404.048 412.452 402.681 404.925C401.318 397.396 406.313 391.291 413.843 391.291C421.373 391.291 428.581 397.396 429.944 404.925Z" fill="white"/>
<path d="M417.923 469.655L429.354 511.208L475.6 466.747L417.923 469.655Z" fill="#BABBE4"/>
<path d="M754.929 1288.97C753.527 1290.4 752.323 1291.99 751.333 1293.68L749.824 1292.9C749.603 1291.93 748.688 1291.27 747.685 1291.38C746.61 1291.51 745.841 1292.49 745.968 1293.56C746.094 1294.63 747.068 1295.4 748.142 1295.28C748.353 1295.25 748.554 1295.19 748.736 1295.1L750.2 1295.87C749.385 1297.67 748.798 1299.56 748.451 1301.53L750.875 1301.95C751.622 1297.71 753.634 1293.82 756.688 1290.68L754.929 1288.97" fill="#050607"/>
<path d="M772.74 1281.49C772.185 1281.49 771.633 1281.52 771.085 1281.55L770.848 1279.52C771.455 1279.03 771.805 1278.25 771.708 1277.43C771.559 1276.15 770.403 1275.24 769.128 1275.39C767.852 1275.54 766.94 1276.69 767.09 1277.97C767.187 1278.79 767.706 1279.47 768.401 1279.8L768.641 1281.82C766.324 1282.2 764.087 1282.9 761.958 1283.92L763.02 1286.14C766.048 1284.69 769.319 1283.96 772.74 1283.96C774.35 1283.96 775.96 1284.13 777.527 1284.47L778.05 1282.06C776.31 1281.69 774.525 1281.49 772.74 1281.49" fill="#050607"/>
<path d="M794.168 1289.76C795.242 1289.63 796.005 1288.65 795.875 1287.58C795.742 1286.5 794.765 1285.75 793.691 1285.87C792.688 1286 791.954 1286.86 791.974 1287.85L790.623 1289.03C789.267 1287.63 787.735 1286.39 786.054 1285.33L784.742 1287.41C788.423 1289.73 791.302 1293.02 793.061 1296.91L795.3 1295.89C794.489 1294.09 793.46 1292.41 792.246 1290.88L793.551 1289.74C793.749 1289.78 793.957 1289.79 794.168 1289.76" fill="#050607"/>
<path d="M770.962 1314.63C769.712 1314.71 768.45 1314.74 767.207 1314.74C764.35 1314.74 761.582 1314.54 759.164 1314.16C757.898 1313.96 756.418 1313.65 755.042 1313.21C758.437 1319.25 765.003 1323.36 772.529 1323.36C781.795 1323.36 789.608 1317.14 791.841 1308.74C789.627 1310.19 786.953 1311.42 783.86 1312.38C780.033 1313.57 775.567 1314.35 770.962 1314.63" fill="#050607"/>
<path d="M781.107 1304.61C778.673 1304.61 776.693 1302.63 776.693 1300.2C776.693 1297.76 778.673 1295.78 781.107 1295.78C783.542 1295.78 785.521 1297.76 785.521 1300.2C785.521 1302.63 783.542 1304.61 781.107 1304.61ZM765.733 1307.56C762.423 1307.56 759.729 1304.86 759.729 1301.56C759.729 1298.24 762.423 1295.55 765.733 1295.55C769.04 1295.55 771.734 1298.24 771.734 1301.56C771.734 1304.86 769.04 1307.56 765.733 1307.56ZM772.74 1286.42C761.861 1286.42 753.007 1295.07 753.007 1305.71C753.007 1307.09 753.16 1308.46 753.452 1309.8C755.639 1311.36 762.234 1312.69 770.809 1312.17C780.153 1311.61 787.998 1309.06 792.464 1305.17C792.447 1304.53 792.396 1303.9 792.318 1303.28C791.084 1293.66 782.665 1286.42 772.74 1286.42" fill="#050607"/>
<path d="M824.68 1292.48C823.725 1292.1 822.067 1291.47 820.194 1291.71C818.406 1291.93 817.455 1292.81 817.455 1294.97V1297.78H824.686V1303.35H817.455V1321.06H811.188V1303.35H806.839V1297.78H811.188V1294.9C811.188 1289.44 814.093 1285.87 819.522 1285.87C821.606 1285.87 823.278 1286.26 824.683 1286.87L824.68 1292.48" fill="#050607"/>
<path d="M839.944 1303.29C839.369 1303.19 838.782 1303.14 838.233 1303.14C835.328 1303.14 833.336 1304.92 833.336 1308.38V1321.06H827.065V1297.78H833.144V1300.33C834.608 1298.14 836.841 1297.16 839.7 1297.16C841.047 1297.16 842.452 1297.57 843.251 1298.25L839.944 1303.29" fill="#050607"/>
<path d="M848.229 1307.22H858.534C857.96 1304.24 856.155 1302.56 853.464 1302.56C850.511 1302.56 848.781 1304.34 848.229 1307.22ZM864.827 1309.39C864.827 1310.11 864.779 1310.97 864.707 1311.5H848.203C848.878 1314.86 851.232 1316.33 854.188 1316.33C856.204 1316.33 858.388 1315.51 860.072 1314.09L863.746 1318.13C861.105 1320.55 857.742 1321.66 853.825 1321.66C846.691 1321.66 841.745 1316.81 841.745 1309.48C841.745 1302.15 846.548 1297.16 853.513 1297.16C860.215 1297.16 864.805 1302.13 864.827 1309.39" fill="#050607"/>
<path d="M873.068 1307.22H883.373C882.795 1304.24 880.994 1302.56 878.306 1302.56C875.35 1302.56 873.62 1304.34 873.068 1307.22ZM889.669 1309.39C889.669 1310.11 889.62 1310.97 889.549 1311.5H873.045C873.717 1314.86 876.07 1316.33 879.024 1316.33C881.042 1316.33 883.23 1315.51 884.911 1314.09L888.585 1318.13C885.943 1320.55 882.581 1321.66 878.667 1321.66C871.53 1321.66 866.583 1316.81 866.583 1309.48C866.583 1302.15 871.387 1297.16 878.352 1297.16C885.054 1297.16 889.643 1302.13 889.669 1309.39" fill="#050607"/>
<path d="M898.328 1309.41C898.328 1313.08 900.756 1315.82 904.31 1315.82C908.01 1315.82 910.314 1312.96 910.314 1309.41C910.314 1305.86 908.01 1303 904.31 1303C900.756 1303 898.328 1305.74 898.328 1309.41ZM916.754 1309.41C916.754 1316.4 911.901 1321.66 905.488 1321.66C902.366 1321.66 900.156 1320.43 898.64 1318.63V1330.67H892.396V1297.78H898.52V1300.35C900.036 1298.46 902.269 1297.16 905.462 1297.16C911.902 1297.16 916.754 1302.42 916.754 1309.41Z" fill="#050607"/>
<path d="M925.987 1321.06H919.717V1297.78H925.987V1321.06ZM926.825 1290.17C926.825 1292.42 925.072 1294.15 922.816 1294.15C920.558 1294.15 918.828 1292.42 918.828 1290.17C918.828 1287.91 920.558 1286.13 922.816 1286.13C925.072 1286.13 926.825 1287.91 926.825 1290.17Z" fill="#050607"/>
<path d="M936.448 1306.07L945.218 1297.78H952.903L941.615 1308.74L952.978 1321.06H945.266L936.448 1311.64V1321.06H930.181V1286.47H936.448V1306.07" fill="#050607"/>
<path d="M509.267 1314.62V1304.21C507.982 1302.21 505.223 1300.5 502.373 1300.5C497.761 1300.5 495.002 1304.3 495.002 1309.39C495.002 1314.48 497.761 1318.23 502.373 1318.23C505.223 1318.23 507.982 1316.62 509.267 1314.62V1314.62ZM509.267 1320.85V1317.43C507.553 1319.76 504.749 1321.42 501.516 1321.42C495.525 1321.42 491.293 1316.86 491.293 1309.39C491.293 1302.07 495.48 1297.32 501.516 1297.32C504.606 1297.32 507.41 1298.84 509.267 1301.36V1289.14H512.83V1320.85H509.267Z" fill="#050607"/>
<path d="M528.707 1300.26C523.813 1300.26 521.385 1304.4 521.197 1307.92H536.266C536.221 1304.5 533.939 1300.26 528.707 1300.26ZM517.442 1309.35C517.442 1302.69 522.193 1297.32 528.756 1297.32C535.698 1297.32 539.785 1302.74 539.785 1309.63V1310.53H521.197C521.483 1314.86 524.524 1318.47 529.47 1318.47C532.083 1318.47 534.747 1317.43 536.552 1315.57L538.266 1317.9C535.984 1320.18 532.891 1321.42 529.136 1321.42C522.336 1321.42 517.442 1316.52 517.442 1309.35" fill="#050607"/>
<path d="M542.352 1317.81L544.205 1315.24C545.727 1317 548.629 1318.52 551.764 1318.52C555.282 1318.52 557.184 1316.86 557.184 1314.57C557.184 1309.01 542.969 1312.43 542.969 1303.92C542.969 1300.36 546.062 1297.32 551.527 1297.32C555.425 1297.32 558.184 1298.79 560.037 1300.64L558.372 1303.12C556.996 1301.45 554.474 1300.22 551.527 1300.22C548.389 1300.22 546.442 1301.79 546.442 1303.83C546.442 1308.87 560.654 1305.54 560.654 1314.48C560.654 1318.33 557.564 1321.42 551.621 1321.42C547.866 1321.42 544.682 1320.28 542.352 1317.81" fill="#050607"/>
<path d="M565.266 1320.85V1297.89H568.833V1320.85H565.266ZM564.649 1292.23C564.649 1290.9 565.743 1289.81 567.025 1289.81C568.359 1289.81 569.45 1290.9 569.45 1292.23C569.45 1293.56 568.359 1294.61 567.025 1294.61C565.743 1294.61 564.649 1293.56 564.649 1292.23Z" fill="#050607"/>
<path d="M591.364 1314.24V1304.21C590.13 1302.21 587.372 1300.5 584.522 1300.5C579.907 1300.5 577.151 1304.16 577.151 1309.25C577.151 1314.29 579.907 1318 584.522 1318C587.372 1318 590.13 1316.24 591.364 1314.24V1314.24ZM574.727 1326.74L576.535 1324.08C578.437 1326.36 580.718 1327.22 583.996 1327.22C587.8 1327.22 591.364 1325.37 591.364 1320.33V1317.05C589.702 1319.38 586.898 1321.14 583.662 1321.14C577.674 1321.14 573.445 1316.67 573.445 1309.25C573.445 1301.88 577.625 1297.32 583.662 1297.32C586.755 1297.32 589.514 1298.84 591.364 1301.36V1297.89H594.931V1320.18C594.931 1327.79 589.608 1330.17 583.996 1330.17C580.098 1330.17 577.437 1329.41 574.727 1326.74" fill="#050607"/>
<path d="M616.371 1320.85V1305.83C616.371 1301.79 614.33 1300.5 611.24 1300.5C608.433 1300.5 605.768 1302.21 604.441 1304.07V1320.85H600.874V1297.89H604.441V1301.21C606.057 1299.31 609.192 1297.32 612.616 1297.32C617.416 1297.32 619.938 1299.74 619.938 1304.73V1320.85H616.371" fill="#050607"/>
<path d="M635.815 1300.26C630.921 1300.26 628.493 1304.4 628.305 1307.92H643.374C643.326 1304.5 641.044 1300.26 635.815 1300.26ZM624.55 1309.35C624.55 1302.69 629.301 1297.32 635.864 1297.32C642.803 1297.32 646.892 1302.74 646.892 1309.63V1310.53H628.305C628.591 1314.86 631.632 1318.47 636.578 1318.47C639.191 1318.47 641.852 1317.43 643.66 1315.57L645.373 1317.9C643.092 1320.18 639.999 1321.42 636.244 1321.42C629.444 1321.42 624.55 1316.52 624.55 1309.35" fill="#050607"/>
<path d="M668.096 1314.62V1304.21C666.811 1302.21 664.055 1300.5 661.202 1300.5C656.59 1300.5 653.835 1304.3 653.835 1309.39C653.835 1314.48 656.59 1318.23 661.202 1318.23C664.055 1318.23 666.811 1316.62 668.096 1314.62V1314.62ZM668.096 1320.85V1317.43C666.385 1319.76 663.578 1321.42 660.345 1321.42C654.357 1321.42 650.125 1316.86 650.125 1309.39C650.125 1302.07 654.309 1297.32 660.345 1297.32C663.435 1297.32 666.243 1298.84 668.096 1301.36V1289.14H671.663V1320.85H668.096Z" fill="#050607"/>
<path d="M699.091 1318.23C703.748 1318.23 706.507 1314.48 706.507 1309.39C706.507 1304.3 703.748 1300.5 699.091 1300.5C696.287 1300.5 693.479 1302.21 692.246 1304.21V1314.62C693.479 1316.62 696.287 1318.23 699.091 1318.23V1318.23ZM688.679 1320.85V1289.14H692.246V1301.36C694.099 1298.84 696.855 1297.32 699.993 1297.32C705.985 1297.32 710.217 1302.07 710.217 1309.39C710.217 1316.86 705.985 1321.42 699.993 1321.42C696.761 1321.42 693.957 1319.76 692.246 1317.43V1320.85H688.679" fill="#050607"/>
<path d="M714.112 1326.6C714.634 1326.84 715.495 1326.98 716.063 1326.98C717.63 1326.98 718.679 1326.46 719.487 1324.56L721.009 1321.09L711.402 1297.89H715.254L722.907 1316.71L730.515 1297.89H734.413L722.907 1325.51C721.528 1328.84 719.201 1330.12 716.157 1330.17C715.397 1330.17 714.209 1330.03 713.544 1329.84L714.112 1326.6" fill="#050607"/>
</svg>
