<svg width="34" height="34"  viewBox="0 0 24 24" fill="none" xmlns="http://www.w3.org/2000/svg">
<g filter="url(#filter0_d_662_16497)">
<path class="clap_misc1" d="M7.75147 7.01148C7.76348 6.518 7.29619 6.0138 7.17579 5.537C6.86463 5.33985 6.24642 5.45275 6.4809 5.9285C6.55303 6.07487 6.72259 6.1766 6.84742 6.28054C7.12647 6.51283 7.41273 6.86481 7.75147 7.01148Z"/>
<path class="clap_misc2" d="M12.1572 5.89356C12.4675 5.70932 12.4377 5.12918 12.6213 4.8455L12.5758 4.797L12.6566 4.74649L12.692 4.64749C12.6833 4.46462 12.8012 4.31742 12.6654 4.14418C12.4787 3.90598 12.047 3.97394 11.9649 4.267C11.9174 4.43627 11.9865 4.65469 12.0131 4.82484C12.0686 5.18019 12.1115 5.53731 12.1572 5.89356Z"/>
<path class="clap_misc3" d="M13.6084 6.32481C13.7868 6.24564 13.9089 6.09871 14.0465 5.96908C14.2883 5.74127 14.6495 5.49762 14.8062 5.20748C14.897 5.03937 14.8309 4.78526 14.6568 4.68507C14.4773 4.58176 14.2493 4.63683 14.1292 4.79477C14.0305 4.92455 13.9918 5.10111 13.9383 5.25076C13.8243 5.56997 13.583 5.98565 13.6084 6.32481ZM6.83715 8.04289C6.67045 7.74879 6.26543 7.51359 6.00209 7.29445C5.87274 7.18679 5.73935 7.04047 5.57863 6.97587C5.38837 6.89941 5.13722 6.97636 5.04104 7.15217C4.94895 7.32051 5.01834 7.54355 5.18435 7.64569C5.34529 7.7447 5.57512 7.76938 5.75848 7.81484C6.09301 7.89778 6.48907 8.07107 6.83715 8.04289Z"/>
<path class="clap_hand1" d="M11.0461 7.64564H11.0155C10.8984 7.3833 10.6444 7.11798 10.3421 7.05224C9.67374 6.90697 9.16243 7.52311 9.4237 8.10944C8.89901 7.78205 8.10304 7.92627 8.07809 8.63122C8.06661 8.95588 8.2723 9.20132 8.47473 9.44287C7.83611 9.09914 7.16635 9.54671 7.25592 10.2255C7.30643 10.6083 7.75774 11.0449 8.01555 11.3271C7.35149 10.8833 6.51063 11.5075 6.80539 12.2257C6.9112 12.4835 7.13647 12.7002 7.30686 12.9214C7.65084 13.3679 8.00368 13.8083 8.34766 14.2548C8.88625 14.9539 9.43604 15.6453 9.97827 16.3419C10.2824 16.7326 10.5675 17.196 10.9548 17.518C11.4164 17.902 11.9586 17.996 12.4543 18.3C12.7522 18.4827 12.8937 18.8594 13.2196 18.9933C13.6031 19.151 13.9353 18.9316 14.2298 18.7226C14.7887 18.3258 15.3537 17.9371 15.9134 17.5413C16.4821 17.1392 17.0564 16.744 17.6277 16.3453C17.8679 16.1777 18.2228 16.0021 18.3461 15.7332C18.6036 15.1714 17.936 14.937 17.9045 14.4577C17.8549 13.701 18.1224 12.9746 17.8717 12.2257C17.615 11.4587 16.9035 10.9225 16.5045 10.2255C16.2657 9.80844 16.0842 8.89724 15.6073 8.6825C14.8471 8.34015 14.5379 9.34052 14.7196 9.8487C14.1072 9.17862 13.5935 8.41257 13.032 7.70361C12.8147 7.42922 12.6141 7.06566 12.3306 6.84933C11.6993 6.36757 10.8663 6.93062 11.0461 7.64564Z" />
<path class="clap_hand2" d="M14.4162 8.35456L14.3863 8.3481C14.3339 8.06765 14.1487 7.75542 13.8694 7.62755C13.252 7.34495 12.6086 7.83774 12.7254 8.46446C12.2909 8.03462 11.481 8.0073 11.2908 8.68927C11.2033 9.00335 11.346 9.28601 11.4866 9.5642C10.9449 9.09438 10.1866 9.38942 10.1143 10.0701C10.0735 10.4539 10.4107 10.9748 10.5957 11.3042C10.0527 10.7315 9.08613 11.1626 9.20452 11.9249C9.24701 12.1986 9.41565 12.4574 9.52972 12.7089C9.76001 13.2168 10.0004 13.7206 10.2307 14.2284C10.5913 15.0236 10.9646 15.8136 11.3293 16.6071C11.5339 17.0521 11.7029 17.564 12.0046 17.9596C12.3643 18.4313 12.8708 18.6373 13.2825 19.0382C13.5299 19.2792 13.5792 19.6763 13.8654 19.8756C14.2022 20.1102 14.5777 19.9664 14.9139 19.8248C15.5521 19.5559 16.1945 19.2961 16.8332 19.0283C17.4821 18.7562 18.135 18.4922 18.7857 18.224C19.0593 18.1112 19.4466 18.0149 19.63 17.7788C20.0132 17.2855 19.4176 16.9161 19.4997 16.4423C19.6293 15.6941 20.0609 15.0423 19.9927 14.2594C19.9229 13.4575 19.3554 12.7846 19.1304 12.0211C18.9958 11.5641 19.0332 10.6375 18.6188 10.3275C17.9582 9.83343 17.4214 10.7434 17.479 11.2772C17.0397 10.4948 16.7191 9.63959 16.3385 8.83C16.1912 8.51666 16.0812 8.11993 15.8557 7.84923C15.3535 7.24639 14.4091 7.61959 14.4162 8.35456Z"/>
</g>
<defs>
<filter id="filter0_d_662_16497" x="0.6" y="0" width="23" height="24" filterUnits="userSpaceOnUse" color-interpolation-filters="sRGB">
<feFlood flood-opacity="0" result="BackgroundImageFix"/>
<feColorMatrix in="SourceAlpha" type="matrix" values="0 0 0 0 0 0 0 0 0 0 0 0 0 0 0 0 0 0 127 0" result="hardAlpha"/>
<feOffset dx="-0.4"/>
<feGaussianBlur stdDeviation="2"/>
<feComposite in2="hardAlpha" operator="out"/>
<feColorMatrix type="matrix" values="0 0 0 0 1 0 0 0 0 1 0 0 0 0 1 0 0 0 0.3 0"/>
<feBlend mode="normal" in2="BackgroundImageFix" result="effect1_dropShadow_662_16497"/>
<feBlend mode="normal" in="SourceGraphic" in2="effect1_dropShadow_662_16497" result="shape"/>
</filter>
</defs>
</svg>
