<svg width="38" height="38" viewBox="0 0 68 68" fill="none" xmlns="http://www.w3.org/2000/svg">
<path d="M29.1956 0.211023C29.1561 0.329384 29.1167 0.526649 29.1167 0.67131C29.1167 0.815973 28.972 1.22366 28.7879 1.57874C28.0909 2.94645 27.7884 4.13004 27.7884 5.49776C27.7884 7.10219 27.9331 7.78604 28.6169 9.20636C29.0641 10.1532 29.143 10.4557 29.1561 11.1922C29.1561 11.9286 29.0772 12.2311 28.6301 13.2306C27.9199 14.7824 27.9199 14.7824 27.8147 15.874L27.7227 16.834H29.9189H32.102L32.1809 16.3211C32.2203 16.0318 32.4833 15.2822 32.7727 14.6378C33.93 12.1391 33.8511 9.96912 32.5491 7.2337C31.9442 5.95804 31.9705 5.19528 32.7201 3.56455C33.2724 2.3678 33.588 1.19735 33.588 0.368837V0.000606537H31.4313C29.5901 0.000606537 29.2613 0.0269089 29.1956 0.211023Z" fill="black"/>
<path d="M37.928 0.434591C37.928 0.67131 37.7176 1.28941 37.4677 1.81545C36.7576 3.31468 36.5603 4.11689 36.5603 5.58981C36.5603 7.06273 36.7576 7.86495 37.4677 9.36417C38.0858 10.653 38.1121 11.7445 37.5466 12.8755C37.0074 13.9276 36.6523 15.0454 36.5471 16.0055L36.4551 16.834H38.7039H40.9527V16.4C40.9527 16.1633 41.1632 15.5452 41.413 15.0191C42.6624 12.4021 42.6887 10.1138 41.4788 7.60193C41.0185 6.6682 40.9527 6.40518 40.9527 5.62927C40.9527 4.89281 41.0185 4.59033 41.3341 3.95908C41.8733 2.90699 42.2284 1.78915 42.3336 0.815973L42.4257 0.000606537H40.1768H37.928V0.434591Z" fill="black"/>
<path d="M10.2447 21.3064C8.91643 21.4905 7.79859 21.8192 6.56239 22.4242C3.35352 23.976 1.1836 26.6325 0.236719 30.1965C0.0526043 30.8935 0 31.551 0 33.0108C0.0131511 34.681 0.0526043 35.0624 0.355079 36.075C1.57813 40.0729 4.28725 42.861 8.20627 44.1235C9.1663 44.4391 9.62659 44.5049 11.4677 44.5706L13.6114 44.6495L14.361 46.0567C15.5183 48.2398 16.6361 49.739 18.5299 51.6196C21.0286 54.1314 23.5536 55.7885 26.7098 56.9984C31.51 58.8527 37.2175 59.0236 42.1361 57.4455C45.7394 56.2882 48.9615 54.3287 51.6048 51.659C54.8794 48.3713 56.9836 44.4654 58.0094 39.7968L58.3645 38.2055L58.4039 29.6836L58.4565 21.1748L34.7451 21.188C21.6993 21.2011 10.6787 21.2537 10.2447 21.3064ZM11.665 31.7878C11.7176 36.7063 11.7702 38.1529 11.9412 38.9945C12.0464 39.5732 12.1516 40.0992 12.1516 40.165C12.1516 40.3623 10.1526 40.1518 9.33726 39.8625C7.23309 39.1261 5.47085 37.4296 4.78699 35.4701C3.80066 32.682 4.45821 29.7756 6.50978 27.7504C7.69338 26.5931 9.65289 25.6857 11.0601 25.6594L11.5992 25.6462L11.665 31.7878Z" fill="black"/>
<path d="M2.81348 65.1641V67.334H35.0336H67.2538V65.1641V62.9941H35.0336H2.81348V65.1641Z" fill="black"/>
</svg>
