<svg width="20" height="20" viewBox="0 0 15 15" fill="none" xmlns="http://www.w3.org/2000/svg">
<path opacity="0.5" fill-rule="evenodd" clip-rule="evenodd" d="M3.75012 7.49995C3.75012 7.08595 4.08612 6.74995 4.50012 6.74995C4.91412 6.74995 5.25012 7.08595 5.25012 7.49995C5.25012 7.91395 4.91412 8.24995 4.50012 8.24995C4.08612 8.24995 3.75012 7.91395 3.75012 7.49995ZM7.50012 6.74995C7.08612 6.74995 6.75012 7.08595 6.75012 7.49995C6.75012 7.91395 7.08612 8.24995 7.50012 8.24995C7.91412 8.24995 8.25012 7.91395 8.25012 7.49995C8.25012 7.08595 7.91412 6.74995 7.50012 6.74995ZM10.5001 6.74995C10.0861 6.74995 9.75012 7.08595 9.75012 7.49995C9.75012 7.91395 10.0861 8.24995 10.5001 8.24995C10.9141 8.24995 11.2501 7.91395 11.2501 7.49995C11.2501 7.08595 10.9141 6.74995 10.5001 6.74995ZM13.424 8.47036C13.0437 10.9109 11.0765 12.9351 8.63972 13.3919C7.46298 13.6139 6.26447 13.4871 5.17697 13.0266C4.86872 12.8961 4.54997 12.8301 4.23722 12.8301C4.09472 12.8301 3.95372 12.8436 3.81497 12.8714L1.70597 13.2929L2.12822 11.1801C2.21672 10.7414 2.16272 10.2719 1.97297 9.82261C1.51247 8.73511 1.38647 7.53736 1.60772 6.35986C2.06447 3.92311 4.08797 1.95586 6.52922 1.57561C8.47172 1.27336 10.3715 1.88536 11.7425 3.25636C13.1142 4.62811 13.727 6.52861 13.424 8.47036ZM12.8037 2.19613C11.0899 0.483129 8.71995 -0.281122 6.2982 0.0931285C3.24045 0.570128 0.70545 3.03313 0.1332 6.08338C-0.1428 7.55188 0.0162001 9.04738 0.59145 10.4071C0.6642 10.5804 0.6867 10.7416 0.6582 10.8864L0.0147001 14.1024C-0.0347999 14.3484 0.0424501 14.6026 0.2202 14.7796C0.36195 14.9221 0.5532 14.9994 0.75045 14.9994C0.7992 14.9994 0.84795 14.9949 0.89745 14.9851L4.1097 14.3424C4.2942 14.3071 4.4727 14.3589 4.59195 14.4084C5.9532 14.9836 7.4487 15.1419 8.9157 14.8666C11.9667 14.2944 14.4297 11.7594 14.9067 8.70163C15.2832 6.28138 14.5175 3.90988 12.8037 2.19613Z" fill="#CDCDCD"/>
</svg>
