<svg width="133" height="123" viewBox="0 0 133 123" fill="none" xmlns="http://www.w3.org/2000/svg">
<path d="M41.7225 26.3073C41.8562 26.479 41.9414 26.6088 41.9782 26.6969C42.045 26.7827 42.0517 26.8729 41.9981 26.9677L41.0846 27.1939C40.918 27.1911 40.733 27.1442 40.5297 27.0534C40.3425 26.9764 40.1703 26.8984 40.0132 26.8192C39.6138 26.5311 39.181 26.2 38.7147 25.826C38.2485 25.452 37.7591 25.0722 37.2466 24.6865C36.748 24.2847 36.2413 23.8758 35.7266 23.4601C35.228 23.0582 34.7537 22.6773 34.3036 22.3172C33.7184 22.9957 33.175 23.6257 32.6734 24.2073C32.1879 24.8028 31.8081 25.2922 31.5339 25.6755C31.9935 25.9592 32.5525 26.2582 33.211 26.5727C33.8695 26.8871 34.5893 27.2121 35.3704 27.5477C36.1515 27.8833 36.9707 28.2237 37.8281 28.5688C38.6855 28.9139 39.5337 29.237 40.3728 29.5381C40.6686 29.6523 40.9344 29.7689 41.17 29.8876C41.4358 30.0041 41.7015 30.1206 41.9672 30.2371C41.9115 30.3018 41.8616 30.3433 41.8176 30.3616C41.7875 30.3639 41.7424 30.3672 41.6822 30.3716C41.5223 30.4591 41.3521 30.5095 41.1715 30.5228C41.0049 30.52 40.8453 30.5091 40.6926 30.4901C40.5561 30.485 40.4347 30.4789 40.3283 30.4716C40.1917 30.4665 40.0354 30.5008 39.8594 30.5743C39.6994 30.6617 39.4818 30.6853 39.2066 30.6451C37.5992 30.3857 36.0813 30.0061 34.6528 29.5065C33.2244 29.007 31.7661 28.4112 30.2781 27.7194C29.9338 27.5633 29.7087 27.3833 29.6029 27.1794C29.4831 26.9916 29.4712 26.7277 29.5672 26.3879C29.6463 26.2308 29.6965 26.0909 29.7177 25.9684C29.7389 25.8458 29.7164 25.6432 29.6501 25.3607C29.6251 25.2265 29.6753 25.0866 29.8007 24.9412C29.94 24.7797 30.0782 24.6031 30.2154 24.4115C30.5175 23.9959 30.8973 23.5065 31.3549 22.9433C31.8425 22.3779 32.3662 21.7871 32.9257 21.171L32.2957 20.6276C32.1642 20.4861 32.0732 20.3794 32.0225 20.3075C31.9857 20.2194 31.9585 20.0551 31.9407 19.8144C32.0382 19.7013 32.1252 19.6495 32.2015 19.659C32.294 19.6824 32.3923 19.6827 32.4965 19.6599C32.6007 19.6371 32.7038 19.5992 32.8058 19.5463C32.9239 19.5073 33.0373 19.5065 33.1459 19.5439C33.2406 19.5974 33.3515 19.6648 33.4785 19.7462C33.6217 19.8415 33.788 19.9427 33.9774 20.0497C34.5252 19.4799 35.065 18.903 35.5967 18.3193C36.1445 17.7494 36.6575 17.2199 37.1357 16.7309L36.7965 16.4383C36.6026 16.2711 36.4792 16.1365 36.4263 16.0345C36.4035 15.9303 36.3899 15.8481 36.3854 15.7879C36.3949 15.7116 36.4055 15.6503 36.4172 15.6041C36.4429 15.5417 36.4223 15.4676 36.3555 15.3817C36.2402 15.2541 36.1964 15.1742 36.2243 15.1418C36.2522 15.1095 36.2477 15.0494 36.211 14.9613C36.1882 14.8571 36.2612 14.8215 36.43 14.8544C36.6149 14.9012 36.8556 14.8835 37.1521 14.8011C37.3627 14.7855 37.504 14.7524 37.5758 14.7017C37.6639 14.665 37.8316 14.6829 38.079 14.7553C38.3102 14.8139 38.6589 15.0302 39.1252 15.4042C39.5914 15.7781 40.0933 16.2251 40.6309 16.7451C41.1824 17.2489 41.721 17.7839 42.2468 18.3502C42.8028 18.9142 43.2559 19.4177 43.6063 19.8607C43.809 20.1483 43.9736 20.4311 44.1 20.7092C44.2403 20.9711 44.3447 21.2583 44.4132 21.5709C44.3714 21.6194 44.3031 21.6168 44.2084 21.5633C44.1438 21.5076 44.0814 21.4819 44.0212 21.4864C43.9148 21.4791 43.8153 21.4638 43.7229 21.4403C43.6443 21.4008 43.5669 21.3762 43.4905 21.3667C43.3981 21.3433 43.3125 21.3118 43.234 21.2722C42.9058 21.1301 42.5685 20.9659 42.222 20.7797C41.9056 20.5913 41.5557 20.36 41.1725 20.0858C40.8053 19.8255 40.3806 19.5014 39.8982 19.1135C39.4458 18.7233 38.9208 18.2705 38.3231 17.755C37.9029 18.2095 37.4408 18.7125 36.937 19.264C36.4493 19.8294 35.9477 20.411 35.4322 21.0087C36.2773 21.5967 37.1892 22.2706 38.168 23.0303C39.1768 23.7877 40.1002 24.5137 40.938 25.2081C41.1157 25.3614 41.2505 25.5481 41.3424 25.7682C41.4342 25.9883 41.561 26.168 41.7225 26.3073ZM51.4519 31.4873C50.4765 32.6182 49.3698 33.6074 48.1315 34.4551C46.9072 35.2867 45.6912 36.0269 44.4837 36.6757C44.3678 36.7447 44.2346 36.7848 44.0842 36.7959C43.9476 36.7909 43.8042 36.7939 43.6537 36.805C43.3088 36.8456 42.994 36.884 42.7093 36.9201C42.4407 36.9702 42.1618 36.9832 41.8727 36.9592C41.6459 36.9608 41.3857 36.9195 41.0921 36.8353C40.8007 36.7812 40.6495 36.6789 40.6384 36.5285C40.7773 35.7468 40.9566 34.9999 41.1763 34.2879C41.4122 33.5898 41.6792 32.9046 41.9775 32.2321C42.3058 31.5575 42.6573 30.8887 43.0319 30.2257C43.4204 29.5466 43.8309 28.8583 44.2635 28.1609C44.3426 28.0038 44.4343 27.9138 44.5385 27.891C44.6427 27.8682 44.748 27.8604 44.8544 27.8677C44.9308 27.8772 45.0038 27.8415 45.0734 27.7607C45.1732 27.6777 45.2774 27.6549 45.386 27.6923C45.4456 27.8845 45.4311 28.0974 45.3424 28.3308C45.2677 28.5481 45.2022 28.7874 45.1458 29.0487C45.1012 29.2637 45.0694 29.4476 45.0504 29.6003C45.0615 29.7507 45.0308 29.9496 44.9583 30.197C44.7621 30.8165 44.4451 31.5432 44.0075 32.3772C43.5699 33.2112 43.1276 34.0834 42.6805 34.9937C43.3358 34.8545 43.9437 34.6887 44.5043 34.496C45.0949 34.3011 45.6463 34.0865 46.1584 33.8521C46.6844 33.6015 47.1954 33.352 47.6914 33.1036C48.2174 32.853 48.7585 32.6013 49.3146 32.3485C49.4907 32.275 49.6749 32.2084 49.8671 32.1489C50.0894 32.0871 50.2887 32.0194 50.4647 31.9459C50.657 31.8863 50.818 31.814 50.9479 31.7287C51.0916 31.6274 51.2596 31.5469 51.4519 31.4873ZM58.0405 37.6772C58.0561 37.8878 58.0496 38.1076 58.0212 38.3366C58.0066 38.5494 57.969 38.7564 57.9082 38.9575C57.7727 39.3759 57.5726 39.7386 57.3078 40.0455C57.0732 40.3503 56.6536 40.6081 56.049 40.8191C55.3842 41.0346 54.7014 41.1077 54.0005 41.0384C53.3157 40.9831 52.6881 40.7799 52.1176 40.4287C51.7065 40.1868 51.3511 39.8802 51.0514 39.5091C50.7657 39.1218 50.5658 38.6676 50.4517 38.1466C50.2851 38.1438 50.0998 38.1953 49.8959 38.3011C49.722 38.4047 49.5874 38.5281 49.4921 38.6713C49.3294 38.9253 49.1942 39.2454 49.0865 39.6315C49.009 40.0153 49.0092 40.3254 49.0871 40.5617C49.2642 40.9116 49.6369 41.2471 50.2051 41.5682C50.7895 41.9032 51.4399 42.2106 52.1564 42.4905C52.903 42.7682 53.6473 43.0158 54.3894 43.2332C55.1616 43.4485 55.8182 43.6345 56.3591 43.7912C56.2755 43.8881 56.1956 43.9318 56.1192 43.9223C56.0591 43.9268 55.9618 43.9415 55.8275 43.9666C55.6771 43.9777 55.5047 43.998 55.3102 44.0274C55.1157 44.0569 54.919 44.0563 54.7201 44.0256C54.475 43.9832 54.2424 44.008 54.0223 44.0998C53.8161 44.1756 53.5442 44.1805 53.2066 44.1147C52.7603 44.0115 52.299 43.9094 51.8226 43.8084C51.3763 43.7053 50.937 43.594 50.5047 43.4746C50.0863 43.3391 49.6807 43.1725 49.2879 42.9746C48.9253 42.7744 48.6044 42.5259 48.3253 42.2288C48.1432 42.0154 48.0143 41.8056 47.9385 41.5994C47.879 41.4072 47.8219 41.1467 47.7674 40.8179C47.7401 40.6535 47.6967 40.4752 47.6372 40.283C47.5776 40.0907 47.5503 39.9264 47.5554 39.7899C47.6291 39.1491 47.8125 38.5608 48.1057 38.0249C48.4129 37.4728 48.7858 36.9915 49.2244 36.581C49.693 36.1682 50.2043 35.8204 50.7582 35.5375C51.3261 35.2384 51.9156 35.0285 52.5269 34.9077C52.8696 34.8371 53.2445 34.7943 53.6518 34.7793C54.0892 34.7622 54.5149 34.7912 54.9289 34.8666C55.3729 34.9397 55.7902 35.0601 56.1807 35.2279C56.5874 35.4097 56.9454 35.6479 57.2545 35.9428C57.3698 36.0704 57.4481 36.2083 57.4893 36.3565C57.5606 36.5025 57.6329 36.6636 57.7064 36.8397C57.7594 36.9416 57.8145 37.0737 57.8718 37.2358C57.9593 37.3958 58.0155 37.5429 58.0405 37.6772ZM56.1047 38.5007C56.1978 38.3275 56.2204 38.1216 56.1726 37.8831C56.1247 37.6447 56.0398 37.4165 55.9178 37.1986C55.8098 36.9645 55.6739 36.7628 55.5101 36.5934C55.3464 36.424 55.2102 36.3206 55.1015 36.2832C54.9305 36.2202 54.7004 36.1767 54.4112 36.1527C54.1521 36.1264 53.8721 36.1244 53.5713 36.1466C53.2865 36.1828 52.9879 36.2351 52.6753 36.3035C52.3928 36.3697 52.1496 36.4558 51.9456 36.5616C51.8715 36.5822 51.7695 36.6351 51.6397 36.7203C51.5399 36.8033 51.4853 36.883 51.4758 36.9593C51.4607 37.3688 51.6469 37.7408 52.0347 38.0752C52.4062 38.3956 52.8786 38.6482 53.4519 38.8327C54.0414 39.0312 54.5085 39.1102 54.8534 39.0696C54.8975 39.0512 54.9785 39.0225 55.0967 38.9836C55.2309 38.9585 55.3641 38.9184 55.4962 38.8633C55.6282 38.8082 55.7522 38.7461 55.8681 38.677C56.0002 38.6219 56.0791 38.5631 56.1047 38.5007ZM68.4122 45.9889C68.2868 46.1343 68.1508 46.3409 68.0042 46.6089C67.8715 46.8607 67.709 47.0164 67.5168 47.076C67.4566 47.0804 67.3847 47.1311 67.3011 47.228C67.2315 47.3088 67.1585 47.3444 67.0821 47.335L66.9343 46.8694C66.7873 46.5172 66.5453 46.2099 66.2083 45.9474C65.8874 45.6988 65.5097 45.4998 65.0751 45.3504C64.7654 45.2522 64.4208 45.1945 64.0413 45.1771C63.692 45.1575 63.3298 45.1691 62.9548 45.2119C62.5799 45.2547 62.214 45.3196 61.8574 45.4064C61.5008 45.4932 61.1754 45.5929 60.8812 45.7053C60.2186 45.9509 59.6017 46.4048 59.0305 47.0672C58.4754 47.7434 57.9792 48.8086 57.542 50.2628C57.4445 50.3758 57.2453 50.4435 56.9444 50.4657C56.8842 50.4701 56.802 50.4838 56.6978 50.5066C56.5936 50.5294 56.5115 50.543 56.4513 50.5475C56.2245 50.5491 56.0601 50.5764 55.9582 50.6293C55.8723 50.6961 55.7751 50.7108 55.6665 50.6735C55.4954 50.6105 55.4718 50.3929 55.5956 50.0207C55.739 49.2992 55.981 48.4797 56.3216 47.5621C56.6924 46.6423 57.0852 45.7133 57.4999 44.7751C57.9309 43.8509 58.3501 42.9729 58.7576 42.1411C59.1952 41.3071 59.5675 40.6141 59.8747 40.062C59.9377 39.891 60.0341 39.7629 60.1639 39.6776C60.3077 39.5763 60.4467 39.5131 60.581 39.488C60.6852 39.4652 60.7557 39.4978 60.7925 39.5859C60.8454 39.6878 60.896 39.7597 60.9445 39.8015C61.1545 39.9827 61.2489 40.1345 61.2277 40.2571C61.2065 40.3797 61.1967 40.5543 61.1983 40.7811C61.2016 41.2346 61.0797 41.7352 60.8327 42.2829C60.5858 42.8305 60.3014 43.4868 59.9798 44.2517C60.6144 44.0385 61.3079 43.9041 62.0601 43.8486C62.8284 43.807 63.5943 43.8336 64.3576 43.9285C65.1348 44.0073 65.8725 44.1646 66.5706 44.4005C67.2686 44.6363 67.8809 44.939 68.4073 45.3086C68.5182 45.376 68.5711 45.478 68.5661 45.6145C68.5911 45.7488 68.5398 45.8736 68.4122 45.9889ZM76.0786 56.9115C76.083 56.9717 76.0933 57.0088 76.1095 57.0227C76.1256 57.0366 76.1198 57.0597 76.0919 57.092C76.0479 57.1104 75.9727 57.116 75.8662 57.1087C75.7899 57.0992 75.6721 57.0398 75.5128 56.9306C75.4504 56.905 75.3579 56.8815 75.2353 56.8603C75.1267 56.823 75.0411 56.7915 74.9787 56.7658C74.459 56.4865 73.8654 56.1295 73.198 55.6948C72.5468 55.2739 71.8783 54.8241 71.1925 54.3453C70.6725 54.8829 70.2035 55.394 69.7855 55.8786C69.3837 56.3772 69.0457 56.8181 68.7714 57.2014C68.5669 57.5039 68.5777 57.7527 68.8038 57.9477C69.0439 58.1266 69.32 58.2802 69.632 58.4084C69.7105 58.448 69.9428 58.5216 70.3289 58.6292C70.7451 58.7347 71.2156 58.8587 71.7404 59.0015C72.2954 59.1421 72.8734 59.2885 73.4745 59.4407C74.0896 59.5768 74.6434 59.7023 75.1359 59.8172C74.9409 60.0434 74.6316 60.157 74.2082 60.158C73.9814 60.1596 73.7454 60.1392 73.5003 60.0968C73.2713 60.0683 73.0273 60.041 72.7682 60.0147C72.4929 59.9745 72.2673 59.9912 72.0912 60.0647C71.9151 60.1382 71.6513 60.1501 71.2997 60.1004C70.6428 60.0128 69.9745 59.8731 69.2948 59.6812C68.6151 59.4894 68.0396 59.2747 67.5683 59.0372C67.4112 58.9581 67.26 58.8558 67.1146 58.7304C66.9853 58.6189 66.8352 58.5317 66.6642 58.4687C66.4006 58.3823 66.2611 58.2338 66.2455 58.0231C66.2462 57.8265 66.3209 57.6092 66.4697 57.3713C66.9206 56.7178 67.4225 56.0379 67.9754 55.3316C68.5445 54.6392 69.1366 53.9526 69.7519 53.2719C69.2394 52.8862 68.7732 52.5122 68.3531 52.1499C67.9632 51.7854 67.6599 51.4675 67.4432 51.1961C67.2288 50.9548 67.0444 50.7112 66.8901 50.4655C66.7659 50.2175 66.6927 49.9431 66.6705 49.6422C66.5251 49.5168 66.5324 49.4104 66.6923 49.323C66.8824 49.2333 67.0353 49.1539 67.1512 49.0849C67.5044 49.3613 68.0111 49.7701 68.6712 50.3113C69.3614 50.8503 70.1001 51.431 70.8872 52.0536C72.1083 50.7685 73.2942 49.6221 74.4451 48.6145C75.5959 47.6069 76.5282 46.9179 77.242 46.5475C77.3674 46.4021 77.5076 46.354 77.6625 46.403C77.8474 46.4499 78.0394 46.4887 78.2383 46.5193C78.3308 46.5428 78.4302 46.5581 78.5366 46.5654C78.6731 46.5704 78.806 46.6287 78.9352 46.7402C79.011 46.9463 79.0533 47.1096 79.0622 47.23C79.085 47.3341 79.0615 47.4266 78.9919 47.5074C78.9222 47.5882 78.8144 47.6642 78.6684 47.7355C78.5224 47.8068 78.3404 47.9034 78.1226 48.0254C78.0485 48.046 77.8258 48.2061 77.4547 48.5058C77.0835 48.8054 76.6207 49.1951 76.0662 49.6746C75.5418 50.152 74.9396 50.7032 74.2597 51.3282C73.5937 51.937 72.9369 52.5678 72.2893 53.2207C72.8224 53.6805 73.3243 54.1275 73.795 54.5616C74.2797 54.9796 74.6938 55.365 75.0375 55.7178L76.0786 56.9115ZM78.8896 60.5193C79.7349 60.2905 80.5554 60.2375 81.351 60.3603C82.1605 60.4669 82.8837 60.837 83.5203 61.4707C83.6033 61.5705 83.6735 61.7014 83.7309 61.8636C83.8021 62.0096 83.8653 62.1486 83.9205 62.2807C84.0513 62.6189 84.1103 63.0078 84.0974 63.4474C84.0984 63.8709 84.0403 64.3138 83.9232 64.7763C83.8362 65.2365 83.7029 65.685 83.5234 66.1217C83.3438 66.5585 83.1529 66.9432 82.9506 67.2758C82.8296 67.4813 82.6588 67.7284 82.4381 68.017C82.2174 68.3055 82.0095 68.5629 81.8144 68.7891C81.7821 68.7612 81.759 68.7553 81.745 68.7715C81.7311 68.7876 81.7149 68.7737 81.6966 68.7297C81.6231 68.5536 81.5947 68.3742 81.6115 68.1914C81.607 68.1313 81.5864 68.0572 81.5497 67.9691C81.5269 67.8649 81.5352 67.7735 81.5748 67.695C81.6818 67.5056 81.8226 67.2607 81.9971 66.9605C82.2016 66.658 82.3878 66.3114 82.5556 65.9209C82.7234 65.5304 82.86 65.127 82.9654 64.7108C83.0848 64.2785 83.137 63.8587 83.122 63.4514C83.1109 63.3009 83.087 63.1817 83.0502 63.0936C83.0436 63.0034 83.0208 62.8992 82.9818 62.7811C82.9568 62.6468 82.8704 62.5019 82.7228 62.3464C82.5891 62.1747 82.4518 62.0563 82.3109 61.9911C81.9666 61.835 81.5434 61.7377 81.0414 61.6991C80.5394 61.6605 80.029 61.7133 79.5103 61.8575C79.0054 61.9855 78.5164 62.2258 78.0433 62.5784C77.5702 62.931 77.2065 63.4343 76.9523 64.0884C76.8753 64.2755 76.8031 64.4246 76.7357 64.5354C76.6822 64.6301 76.6125 64.7109 76.5267 64.7778C76.457 64.8585 76.3562 64.9265 76.2241 64.9816C76.092 65.0367 75.9159 65.1102 75.6958 65.2021C75.3994 65.2845 75.1275 65.2894 74.8801 65.217C74.6489 65.1584 74.4269 65.1218 74.2141 65.1073C74.902 63.3624 75.695 61.7081 76.593 60.1443C77.5072 58.5945 78.4475 57.194 79.414 55.9428C80.3966 54.7055 81.3775 53.6499 82.3566 52.776C83.3497 51.8859 84.2692 51.2281 85.1151 50.8026C85.3308 50.6505 85.5055 50.6603 85.6392 50.832C85.706 50.9178 85.7427 51.0058 85.7494 51.0961C85.7561 51.1864 85.765 51.3067 85.7761 51.4572C85.771 51.5937 85.7649 51.7151 85.7576 51.8216C85.7642 51.9118 85.7339 52.0124 85.6664 52.1232C85.6129 52.2179 85.6185 52.2932 85.6831 52.3489C85.7477 52.4046 85.7371 52.4659 85.6513 52.5328C84.7395 53.2959 83.932 54.0361 83.2287 54.7536C82.5253 55.4711 81.9031 56.1599 81.3619 56.82C80.8369 57.494 80.3779 58.1405 79.9849 58.7595C79.5919 59.3784 79.2269 59.965 78.8896 60.5193ZM91.4806 65.632C91.4984 65.8727 91.4563 66.0195 91.3543 66.0724C91.2685 66.1392 91.1922 66.1297 91.1253 66.0439C90.9153 65.8628 90.6602 65.685 90.3599 65.5105C90.0897 65.3338 89.7953 65.1362 89.4767 64.9177C89.1881 64.697 88.8973 64.4462 88.6043 64.1653C88.3113 63.8844 88.0531 63.5632 87.8298 63.2015C87.812 62.9608 87.9096 62.8477 88.1224 62.8622C88.3653 62.8746 88.6178 62.8106 88.8797 62.6702C89.0535 62.5666 89.2017 62.5254 89.3243 62.5466C89.477 62.5656 89.6087 62.6088 89.7196 62.6763C89.8973 62.8295 90.0806 63.058 90.2694 63.3617C90.4883 63.6632 90.6796 63.8987 90.8434 64.0681C91.0901 64.3373 91.2745 64.5808 91.3964 64.7987C91.5323 65.0004 91.5604 65.2782 91.4806 65.632ZM88.1294 68.4886C87.9058 68.9438 87.6859 69.3457 87.4696 69.6944C87.2695 70.0571 87.0521 70.3908 86.8175 70.6955C86.6129 70.998 86.3853 71.2947 86.1345 71.5854C85.8998 71.8902 85.6362 72.2121 85.3436 72.5514C85.2879 72.616 85.1848 72.6539 85.0343 72.665C84.914 72.6739 84.8028 72.7048 84.7008 72.7577C84.5108 72.8473 84.3776 72.8874 84.3013 72.8779C84.2411 72.8824 84.1417 72.867 84.003 72.8319C83.6932 72.7337 83.3728 72.6969 83.0419 72.7213C83.0966 72.2332 83.2577 71.7524 83.5253 71.2789C83.809 70.8193 84.1228 70.3575 84.4667 69.8934C84.8267 69.4433 85.1787 68.9863 85.5226 68.5222C85.8966 68.056 86.2163 67.571 86.4816 67.0674C86.6282 66.7994 86.7767 66.6599 86.9272 66.6488C87.0776 66.6377 87.2152 66.6578 87.34 66.7091C87.481 66.7743 87.5812 66.903 87.6408 67.0953C87.7165 67.3014 87.7842 67.5006 87.8437 67.6929C87.9011 67.855 87.9713 67.986 88.0542 68.0857C88.1673 68.1833 88.1924 68.3176 88.1294 68.4886ZM91.2741 73.6096C91.7855 73.5719 92.311 73.518 92.8503 73.4479C93.4198 73.3756 93.9834 73.3264 94.5411 73.3004C95.0989 73.2743 95.6368 73.2876 96.155 73.3401C96.6871 73.3764 97.1935 73.4752 97.6743 73.6363C97.783 73.6737 97.8626 73.7283 97.9133 73.8002C97.9801 73.886 98.0679 73.9476 98.1765 73.9849C98.3058 74.0964 98.4188 74.1939 98.5158 74.2775C98.6127 74.3611 98.6737 74.4701 98.6987 74.6044C98.7995 74.9448 98.7961 75.3081 98.6884 75.6942C98.6109 76.0781 98.4812 76.4734 98.2995 76.8801C98.2108 77.1135 98.0969 77.311 97.9575 77.4725C97.8343 77.648 97.7226 77.8756 97.6222 78.1553C97.4544 78.5458 97.2877 78.9514 97.1221 79.372C96.9866 79.7904 96.7773 80.1311 96.4942 80.394C96.4084 80.4608 96.3215 80.5126 96.2334 80.5494C96.1593 80.57 96.0632 80.5998 95.945 80.6387C95.857 80.6755 95.7308 80.7075 95.5664 80.7348C95.4021 80.762 95.2586 80.765 95.136 80.7438C94.9995 80.7388 94.8942 80.7466 94.8201 80.7672C94.7761 80.7855 94.6685 80.7632 94.4975 80.7002C94.5522 80.2121 94.6763 79.7416 94.8698 79.2887C95.0632 78.8358 95.2868 78.3806 95.5404 77.9232C95.794 77.4659 96.0627 77.0074 96.3464 76.5478C96.6301 76.0882 96.9046 75.6066 97.17 75.1029C97.2352 74.962 97.1859 74.8068 97.0222 74.6374C96.8746 74.4819 96.6319 74.3712 96.2943 74.3054C95.9868 74.2374 95.6004 74.2281 95.1351 74.2775C94.6699 74.327 94.1661 74.4701 93.6239 74.7067C93.2439 74.8861 92.858 75.0885 92.4663 75.3141C92.0884 75.5235 91.6875 75.727 91.2634 75.9247C90.8695 76.1202 90.4432 76.2878 89.9846 76.4275C89.5561 76.565 89.1081 76.6435 88.6406 76.6629C88.4902 76.674 88.4267 76.6333 88.4501 76.5408C88.4735 76.4483 88.4415 76.3221 88.3541 76.1622C88.285 76.0463 88.2564 75.9652 88.2681 75.9189C88.2959 75.8866 88.3553 75.7688 88.4462 75.5655C88.6419 75.1426 88.8713 74.6643 89.1344 74.1306C89.4136 73.6108 89.6977 73.0529 89.9864 72.4568C90.2914 71.8746 90.5882 71.2855 90.877 70.6894C91.1797 70.0771 91.4545 69.4972 91.7015 68.9495L91.9323 68.388C92.0203 68.3512 92.1256 68.3434 92.2482 68.3646C92.3869 68.3998 92.5187 68.443 92.6435 68.4943C92.7683 68.5456 92.8663 68.6442 92.9376 68.7902C93.0089 68.9362 93.0768 69.0371 93.1414 69.0928C93.3191 69.2461 93.3751 69.4915 93.3092 69.8292C93.2596 70.1807 93.1299 70.576 92.9203 71.015C92.7246 71.4379 92.4699 71.8802 92.1561 72.342C91.8724 72.8016 91.5784 73.2241 91.2741 73.6096ZM107.554 79.4951C107.365 80.0082 107.048 80.735 106.603 81.6754C106.158 82.6158 105.649 83.6138 105.077 84.6695C104.504 85.7252 103.901 86.7681 103.266 87.7982C102.631 88.8282 102.021 89.6825 101.436 90.361C100.976 90.8941 100.467 91.3704 99.9077 91.7898C99.3509 92.2393 98.6213 92.4974 97.7186 92.564C97.2511 92.5834 96.6853 92.6025 96.0212 92.6212C95.3592 92.6701 94.6928 92.6588 94.022 92.5873C93.7167 92.5493 93.4103 92.4963 93.1027 92.4283C92.8113 92.3742 92.5408 92.2958 92.2913 92.1932C92.3777 91.9297 92.4649 91.7796 92.553 91.7428C92.6432 91.7362 92.7823 91.6729 92.9701 91.5532C93.1439 91.4496 93.3504 91.2755 93.5895 91.031C93.8447 90.8004 94.0857 90.6843 94.3125 90.6827C94.5995 90.6766 94.9778 90.6789 95.4475 90.6896C95.9172 90.7003 96.3927 90.6879 96.8741 90.6524C97.3416 90.633 97.7768 90.5858 98.1796 90.5106C98.5825 90.4355 98.8837 90.315 99.0832 90.149C99.3663 89.8861 99.6611 89.5769 99.9676 89.2215C100.26 88.8823 100.543 88.506 100.815 88.0926C101.089 87.7093 101.347 87.3121 101.589 86.901C101.845 86.4737 102.056 86.0648 102.224 85.6742L102.301 85.4871C101.801 85.6753 101.34 85.7849 100.919 85.816C100.528 85.8449 100.139 85.8055 99.7529 85.6979C99.5679 85.651 99.3969 85.588 99.2398 85.5089C99.0966 85.4135 98.9465 85.3263 98.7894 85.2472C98.6323 85.168 98.4612 85.105 98.2763 85.0581C98.1052 84.9951 97.9712 84.9218 97.8743 84.8382C97.6782 84.6409 97.5449 84.371 97.4742 84.0283C97.4197 83.6995 97.4668 83.4162 97.6156 83.1783C97.697 83.0513 97.7623 82.9104 97.8113 82.7555C97.8743 82.5845 97.9535 82.4274 98.0488 82.2842C98.4206 81.7878 98.8583 81.2639 99.3622 80.7124C99.866 80.161 100.402 79.6374 100.971 79.1416C101.569 78.6436 102.18 78.2128 102.804 77.8491C103.441 77.4693 104.064 77.204 104.674 77.0531C104.898 77.0214 105.124 77.0048 105.351 77.0032C105.591 76.9854 105.808 77.0601 106.002 77.2273C106.132 77.3388 106.286 77.3878 106.467 77.3745C106.664 77.3751 106.82 77.4392 106.935 77.5669C107.182 77.836 107.369 78.1247 107.498 78.4328C107.641 78.7248 107.659 79.0789 107.554 79.4951ZM105.079 80.6988C105.242 80.4448 105.403 80.1757 105.564 79.8916C105.724 79.6075 105.771 79.4225 105.704 79.3367C105.654 79.2648 105.582 79.2171 105.49 79.1937C105.427 79.1681 105.373 79.1494 105.327 79.1377C105.047 79.0373 104.637 79.1205 104.097 79.3873C103.587 79.6518 103.045 79.9868 102.47 80.3923C101.925 80.7955 101.411 81.2116 100.928 81.6405C100.459 82.0533 100.158 82.3705 100.023 82.5922C99.8461 82.8624 99.7087 83.1524 99.6105 83.4622C99.5263 83.7558 99.5683 84.0174 99.7365 84.247C99.7872 84.3189 99.9062 84.3933 100.093 84.4702C100.294 84.531 100.518 84.5826 100.763 84.625C101.022 84.6513 101.281 84.6775 101.54 84.7038C101.813 84.7139 102.04 84.7122 102.22 84.6989C102.311 84.6922 102.452 84.5608 102.645 84.3045C102.868 84.0461 103.108 83.7182 103.366 83.321C103.641 82.9378 103.927 82.5082 104.224 82.0325C104.538 81.5707 104.823 81.1261 105.079 80.6988ZM14.5177 28.1136C14.228 28.2863 14.0031 28.4163 13.8432 28.5037C13.6833 28.5912 13.5966 28.5446 13.5833 28.3641C13.5522 27.9429 13.4866 27.4637 13.3864 26.9265C13.2863 26.3894 13.0298 25.8865 12.6171 25.4178C12.338 25.1207 11.972 24.8755 11.519 24.682C11.0962 24.4864 10.6496 24.4815 10.1793 24.6675C9.76698 24.819 9.44317 25.1454 9.20792 25.6468C8.94258 26.1504 8.88786 26.6385 9.04375 27.111C9.22973 27.5813 9.47588 28.0472 9.78221 28.5086C10.1186 28.9678 10.462 29.4189 10.8124 29.8619C11.1789 30.3189 11.425 30.7848 11.5508 31.2595C11.606 31.3916 11.609 31.535 11.5599 31.6899C11.5409 31.8426 11.5289 31.9872 11.5239 32.1237C11.521 32.2903 11.5241 32.4337 11.533 32.5541C11.558 32.6884 11.5471 32.848 11.5002 33.033C11.4651 33.1717 11.4172 33.3416 11.3564 33.5428C11.3095 33.7277 11.2003 33.8871 11.0286 34.0207C10.799 34.1889 10.402 34.2409 9.83763 34.1767C8.63027 34.0087 7.4731 33.7009 6.3661 33.2532C5.24517 32.8216 4.29175 32.0979 3.50583 31.082C3.42061 30.9521 3.38891 30.7276 3.41072 30.4083C3.4186 30.1052 3.40194 29.8796 3.36074 29.7314C3.22767 29.363 3.2102 29.024 3.30834 28.7142C3.54137 28.1827 3.87386 27.6666 4.30579 27.1658C4.44513 27.0043 4.53206 26.9525 4.56659 27.0104C4.63121 27.0662 4.68775 27.1149 4.73621 27.1567C4.83314 27.2403 4.88241 27.3955 4.88403 27.6223C4.9018 27.863 4.89867 28.1279 4.87464 28.4171C4.88069 28.704 4.87756 28.969 4.86524 29.2119C4.88301 29.4526 4.93229 29.6078 5.01306 29.6774C5.17622 30.0436 5.44469 30.4019 5.81847 30.7524C6.19224 31.103 6.60782 31.4051 7.0652 31.6587C7.55266 31.9101 8.04962 32.0852 8.55607 32.184C9.0926 32.2805 9.59824 32.2658 10.073 32.14C10.1427 32.0593 10.1293 31.8787 10.033 31.5984C9.95284 31.3321 9.8231 31.0089 9.64378 30.6289C9.4784 30.2327 9.28071 29.8086 9.05071 29.3567C8.83686 28.9187 8.63806 28.4796 8.4543 28.0394C8.2867 27.6131 8.15837 27.2066 8.06932 26.8199C7.99642 26.4471 7.99622 26.1371 8.06872 25.8897C8.13172 25.7187 8.18665 25.5407 8.2335 25.3557C8.29428 25.1546 8.34446 25.0147 8.38404 24.9362C8.6098 24.5111 8.88625 24.1579 9.21338 23.8766C9.55444 23.5792 9.90914 23.3639 10.2775 23.2309C10.6458 23.0978 11.0208 23.055 11.4024 23.1024C11.798 23.1337 12.1702 23.2575 12.5189 23.4738C13.0593 23.8272 13.5762 24.273 14.0698 24.8114C14.5934 25.3475 14.9339 25.9652 15.0914 26.6645C15.1231 26.8891 15.1214 27.0707 15.0863 27.2094C15.0673 27.3621 15.0182 27.517 14.9391 27.6741C14.8856 27.7688 14.8321 27.8635 14.7785 27.9582C14.739 28.0368 14.652 28.0886 14.5177 28.1136ZM24.3491 38.7061C24.3535 38.7663 24.3638 38.8033 24.38 38.8172C24.3961 38.8312 24.3903 38.8543 24.3624 38.8866C24.3184 38.905 24.2432 38.9105 24.1367 38.9033C24.0604 38.8938 23.9426 38.8344 23.7833 38.7252C23.7209 38.6995 23.6284 38.6761 23.5058 38.6549C23.3972 38.6175 23.3116 38.586 23.2492 38.5604C22.7295 38.2811 22.1359 37.9241 21.4685 37.4893C20.8173 37.0685 20.1488 36.6187 19.463 36.1399C18.943 36.6775 18.474 37.1885 18.056 37.6732C17.6542 38.1718 17.3162 38.6127 17.0419 38.9959C16.8374 39.2984 16.8482 39.5472 17.0743 39.7423C17.3144 39.9212 17.5905 40.0748 17.9025 40.203C17.981 40.2426 18.2133 40.3162 18.5994 40.4238C19.0156 40.5292 19.4861 40.6533 20.0109 40.7961C20.5659 40.9366 21.1439 41.083 21.745 41.2353C22.3601 41.3714 22.9139 41.4969 23.4064 41.6118C23.2114 41.838 22.9021 41.9515 22.4787 41.9526C22.2519 41.9542 22.0159 41.9338 21.7708 41.8914C21.5418 41.8629 21.2978 41.8355 21.0387 41.8093C20.7634 41.7691 20.5378 41.7858 20.3617 41.8593C20.1856 41.9328 19.9218 41.9447 19.5702 41.895C18.9133 41.8074 18.245 41.6676 17.5653 41.4758C16.8856 41.2839 16.3101 41.0693 15.8388 40.8318C15.6817 40.7527 15.5305 40.6504 15.3851 40.525C15.2558 40.4135 15.1057 40.3263 14.9347 40.2633C14.6711 40.1768 14.5316 40.0283 14.5161 39.8177C14.5167 39.621 14.5914 39.4037 14.7402 39.1659C15.1911 38.5124 15.693 37.8325 16.2459 37.1261C16.815 36.4337 17.4071 35.7471 18.0224 35.0664C17.5099 34.6807 17.0437 34.3068 16.6236 33.9445C16.2337 33.58 15.9304 33.2621 15.7137 32.9907C15.4993 32.7493 15.3149 32.5058 15.1606 32.2601C15.0364 32.0121 14.9632 31.7377 14.941 31.4368C14.7956 31.3114 14.8029 31.205 14.9628 31.1175C15.1529 31.0279 15.3058 30.9485 15.4217 30.8794C15.7749 31.1559 16.2816 31.5647 16.9417 32.1059C17.6319 32.6448 18.3706 33.2256 19.1577 33.8482C20.3788 32.5631 21.5647 31.4167 22.7156 30.4091C23.8664 29.4014 24.7987 28.7124 25.5125 28.3421C25.6379 28.1967 25.7781 28.1485 25.933 28.1976C26.1179 28.2444 26.3099 28.2832 26.5088 28.3139C26.6013 28.3373 26.7007 28.3527 26.8071 28.36C26.9436 28.365 27.0765 28.4233 27.2057 28.5347C27.2815 28.7409 27.3238 28.9042 27.3327 29.0245C27.3555 29.1287 27.3321 29.2212 27.2624 29.302C27.1927 29.3827 27.0849 29.4588 26.9389 29.5301C26.7929 29.6013 26.6109 29.698 26.3931 29.8199C26.319 29.8405 26.0963 30.0007 25.7252 30.3003C25.354 30.6 24.8912 30.9896 24.3367 31.4692C23.8123 31.9466 23.2101 32.4978 22.5302 33.1227C21.8642 33.7316 21.2074 34.3624 20.5598 35.0152C21.0929 35.475 21.5948 35.922 22.0655 36.3562C22.5502 36.7742 22.9643 37.1596 23.308 37.5124L24.3491 38.7061ZM33.2902 43.2907C33.0543 43.9888 32.7675 44.7133 32.4297 45.4643C32.108 46.2292 31.7217 46.9384 31.2708 47.5919C30.8499 48.2431 30.3623 48.8085 29.8078 49.2881C29.2694 49.7816 28.6726 50.098 28.0173 50.2371C27.7487 50.2872 27.5395 50.2194 27.3897 50.0339C27.339 49.962 27.3173 49.8728 27.3246 49.7664C27.3319 49.66 27.316 49.5477 27.277 49.4296C27.2542 49.3254 27.2163 49.2223 27.1634 49.1203C27.1267 49.0323 27.1178 48.9119 27.1368 48.7593C26.8248 48.631 26.478 48.5432 26.0963 48.4957C25.7448 48.4461 25.3782 48.3975 24.9965 48.35C24.6148 48.3026 24.2321 48.2401 23.8482 48.1625C23.4504 48.1011 23.0863 47.9843 22.756 47.8121C22.3955 47.642 22.1914 47.4378 22.1435 47.1993C22.0979 46.9909 22.05 46.7524 21.9999 46.4839C21.9704 46.2894 21.9535 46.1621 21.949 46.1019C21.9307 46.0579 21.982 45.9331 22.1029 45.7275C22.361 45.3303 22.6803 44.9437 23.061 44.5677C23.4717 44.1895 23.9309 43.8531 24.4386 43.5585C25.9014 42.679 27.4359 42.5658 29.042 43.2186C29.2292 43.2956 29.3816 43.4129 29.4991 43.5706C29.6467 43.7261 29.7654 43.8988 29.855 44.0889C29.9447 44.2789 30.0123 44.4781 30.058 44.6865C30.1198 44.9088 30.1654 45.1172 30.1949 45.3117L30.3109 45.9611C30.6285 45.7561 30.8712 45.4584 31.0391 45.0678C31.2369 44.6751 31.3655 44.2647 31.4246 43.8368C31.4977 43.3928 31.5187 42.9602 31.4876 42.5389C31.4566 42.1177 31.3708 41.7761 31.2305 41.5142C30.4066 40.8036 29.4963 40.3565 28.4996 40.173C27.5329 39.9872 26.4779 39.9365 25.3346 40.0209C25.2744 40.0253 25.2131 40.0147 25.1507 39.9891C25.1045 39.9774 25.0582 39.9657 25.012 39.954C24.9356 39.9445 24.8721 39.9038 24.8214 39.8319C24.7869 39.7739 24.8206 39.7185 24.9226 39.6656C25.4654 39.2323 26.0564 38.9391 26.6955 38.786C27.3485 38.6168 28.0013 38.5459 28.6537 38.5734C29.3062 38.6008 29.9411 38.6976 30.5584 38.8638C31.1757 39.03 31.7361 39.2458 32.2398 39.5111C32.3322 39.5346 32.4027 39.5672 32.4512 39.609C32.5297 39.6486 32.6094 39.7032 32.6902 39.7728C32.8032 39.8704 32.8804 39.9933 32.9216 40.1415C32.9628 40.2897 33.0132 40.4599 33.0727 40.6522C33.1646 40.8723 33.2426 41.1085 33.3066 41.3609C33.3845 41.5972 33.4254 41.8438 33.4292 42.1006C33.4309 42.3274 33.4163 42.5402 33.3856 42.7391C33.3549 42.938 33.3231 43.1219 33.2902 43.2907ZM28.7461 46.8934C28.8303 46.5998 28.844 46.2736 28.7873 45.9147C28.7467 45.5698 28.632 45.2455 28.4432 44.9418C28.2683 44.622 28.0065 44.3539 27.6578 44.1376C27.3252 43.9353 26.9009 43.8229 26.385 43.8005C26.1069 43.9269 25.808 44.0775 25.4881 44.2524C25.1822 44.4111 24.8935 44.5988 24.6221 44.8155C24.3647 45.016 24.1245 45.2455 23.9015 45.504C23.7087 45.7602 23.5702 46.0352 23.4859 46.3288C24.281 46.6482 25.0877 46.9215 25.9061 47.1484C26.7245 47.3754 27.4343 47.565 28.0355 47.7173C28.216 47.704 28.3422 47.6719 28.4141 47.6213C28.486 47.5706 28.5267 47.5071 28.5362 47.4307C28.5618 47.3683 28.5783 47.2839 28.5856 47.1775C28.609 47.085 28.6625 46.9903 28.7461 46.8934ZM44.0856 51.4185C43.9602 51.5639 43.8242 51.7706 43.6775 52.0386C43.5449 52.2904 43.3824 52.4461 43.1902 52.5056C43.13 52.5101 43.0581 52.5608 42.9745 52.6577C42.9049 52.7385 42.8319 52.7741 42.7555 52.7646L42.6077 52.299C42.4607 51.9469 42.2187 51.6395 41.8817 51.377C41.5608 51.1284 41.1831 50.9294 40.7485 50.78C40.4388 50.6819 40.0942 50.6241 39.7147 50.6067C39.3654 50.5872 39.0032 50.5988 38.6282 50.6416C38.2532 50.6844 37.8874 50.7492 37.5308 50.836C37.1742 50.9229 36.8488 51.0225 36.5546 51.135C35.892 51.3805 35.2751 51.8345 34.7039 52.4968C34.1487 53.1731 33.6526 54.2383 33.2154 55.6924C33.1179 55.8055 32.9187 55.8731 32.6178 55.8954C32.5576 55.8998 32.4754 55.9134 32.3712 55.9362C32.267 55.9591 32.1848 55.9727 32.1247 55.9771C31.8979 55.9787 31.7335 56.006 31.6315 56.0589C31.5457 56.1258 31.4485 56.1405 31.3398 56.1031C31.1688 56.0401 31.1452 55.8226 31.269 55.4504C31.4123 54.7289 31.6544 53.9093 31.995 52.9918C32.3658 52.072 32.7585 51.143 33.1733 50.2048C33.6042 49.2805 34.0234 48.4025 34.4309 47.5708C34.8685 46.7368 35.2409 46.0438 35.548 45.4917C35.6111 45.3206 35.7075 45.1925 35.8373 45.1073C35.9811 45.0059 36.1201 44.9427 36.2544 44.9177C36.3586 44.8949 36.4291 44.9275 36.4658 45.0155C36.5187 45.1175 36.5694 45.1894 36.6179 45.2312C36.8279 45.4123 36.9223 45.5642 36.9011 45.6867C36.8799 45.8093 36.8701 45.984 36.8717 46.2108C36.8749 46.6643 36.7531 47.1649 36.5061 47.7125C36.2591 48.2602 35.9748 48.9165 35.6531 49.6814C36.2878 49.4681 36.9813 49.3338 37.7335 49.2782C38.5018 49.2366 39.2676 49.2633 40.0309 49.3582C40.8082 49.4369 41.5459 49.5943 42.2439 49.8301C42.942 50.066 43.5543 50.3687 44.0807 50.7382C44.1916 50.8057 44.2445 50.9076 44.2394 51.0441C44.2645 51.1784 44.2132 51.3032 44.0856 51.4185ZM51.752 62.3412C51.7564 62.4013 51.7667 62.4384 51.7828 62.4523C51.799 62.4663 51.7931 62.4894 51.7653 62.5217C51.7213 62.5401 51.646 62.5456 51.5396 62.5384C51.4633 62.5289 51.3455 62.4695 51.1861 62.3603C51.1237 62.3346 51.0313 62.3112 50.9087 62.29C50.8 62.2526 50.7145 62.2211 50.6521 62.1955C50.1324 61.9162 49.5388 61.5592 48.8714 61.1244C48.2202 60.7036 47.5517 60.2538 46.8659 59.775C46.3459 60.3125 45.8769 60.8236 45.4589 61.3083C45.0571 61.8068 44.719 62.2478 44.4448 62.631C44.2402 62.9335 44.2511 63.1823 44.4772 63.3774C44.7173 63.5563 44.9934 63.7099 45.3053 63.8381C45.3839 63.8777 45.6162 63.9513 46.0023 64.0589C46.4185 64.1643 46.889 64.2884 47.4138 64.4312C47.9687 64.5717 48.5468 64.7181 49.1479 64.8704C49.763 65.0065 50.3168 65.132 50.8093 65.2469C50.6143 65.473 50.305 65.5866 49.8815 65.5876C49.6548 65.5893 49.4188 65.5689 49.1737 65.5265C48.9447 65.498 48.7006 65.4706 48.4416 65.4444C48.1663 65.4042 47.9407 65.4208 47.7646 65.4943C47.5885 65.5678 47.3247 65.5798 46.9731 65.5301C46.3162 65.4424 45.6479 65.3027 44.9682 65.1109C44.2885 64.919 43.713 64.7044 43.2417 64.4669C43.0846 64.3877 42.9333 64.2855 42.7879 64.1601C42.6587 64.0486 42.5086 63.9614 42.3375 63.8984C42.074 63.8119 41.9345 63.6634 41.9189 63.4528C41.9195 63.2561 41.9942 63.0388 42.1431 62.801C42.594 62.1475 43.0959 61.4676 43.6488 60.7612C44.2178 60.0688 44.81 59.3822 45.4253 58.7015C44.9128 58.3158 44.4465 57.9418 44.0265 57.5796C43.6366 57.2151 43.3333 56.8971 43.1166 56.6257C42.9022 56.3844 42.7178 56.1409 42.5635 55.8951C42.4393 55.6472 42.3661 55.3727 42.3439 55.0719C42.1985 54.9465 42.2058 54.84 42.3657 54.7526C42.5557 54.663 42.7087 54.5836 42.8246 54.5145C43.1778 54.791 43.6844 55.1998 44.3446 55.741C45.0348 56.2799 45.7734 56.8607 46.5606 57.4833C47.7817 56.1982 48.9676 55.0518 50.1184 54.0441C51.2693 53.0365 52.2016 52.3475 52.9154 51.9772C53.0408 51.8318 53.181 51.7836 53.3358 51.8327C53.5208 51.8795 53.7127 51.9183 53.9117 51.949C54.0041 51.9724 54.1036 51.9878 54.21 51.995C54.3465 52.0001 54.4794 52.0583 54.6086 52.1698C54.6843 52.376 54.7267 52.5393 54.7355 52.6596C54.7584 52.7638 54.7349 52.8563 54.6653 52.9371C54.5956 53.0178 54.4878 53.0939 54.3418 53.1651C54.1958 53.2364 54.0138 53.333 53.7959 53.455C53.7218 53.4756 53.4992 53.6357 53.128 53.9354C52.7569 54.2351 52.2941 54.6247 51.7396 55.1043C51.2151 55.5817 50.613 56.1328 49.9331 56.7578C49.2671 57.3666 48.6103 57.9975 47.9627 58.6503C48.4958 59.1101 48.9977 59.5571 49.4684 59.9913C49.953 60.4093 50.3672 60.7947 50.7109 61.1474L51.752 62.3412ZM60.0945 67.4238C59.8048 67.5964 59.5799 67.7265 59.42 67.8139C59.2601 67.9013 59.1734 67.8548 59.1601 67.6743C59.129 67.253 59.0634 66.7739 58.9632 66.2367C58.8631 65.6996 58.6066 65.1967 58.1939 64.728C57.9148 64.4309 57.5488 64.1857 57.0959 63.9922C56.673 63.7965 56.2264 63.7917 55.7561 63.9777C55.3438 64.1291 55.02 64.4556 54.7847 64.957C54.5194 65.4606 54.4647 65.9486 54.6206 66.4212C54.8065 66.8915 55.0527 67.3573 55.359 67.8187C55.6954 68.2779 56.0388 68.7291 56.3892 69.1721C56.7557 69.6291 57.0018 70.0949 57.1276 70.5697C57.1828 70.7017 57.1858 70.8452 57.1367 71.0001C57.1177 71.1528 57.1057 71.2973 57.1007 71.4339C57.0979 71.6005 57.1009 71.7439 57.1098 71.8643C57.1348 71.9986 57.1239 72.1582 57.0771 72.3432C57.0419 72.4819 56.994 72.6518 56.9332 72.8529C56.8863 73.0379 56.7771 73.1972 56.6054 73.3309C56.3758 73.4991 55.9788 73.5511 55.4144 73.4869C54.2071 73.3189 53.0499 73.011 51.9429 72.5634C50.822 72.1318 49.8686 71.4081 49.0826 70.3922C48.9974 70.2623 48.9657 70.0378 48.9875 69.7185C48.9954 69.4154 48.9787 69.1898 48.9375 69.0415C48.8045 68.6732 48.787 68.3342 48.8851 68.0244C49.1182 67.4929 49.4507 66.9768 49.8826 66.476C50.0219 66.3144 50.1089 66.2626 50.1434 66.3206C50.208 66.3763 50.2646 66.4251 50.313 66.4669C50.4099 66.5505 50.4592 66.7057 50.4608 66.9325C50.4786 67.1732 50.4755 67.4381 50.4514 67.7273C50.4575 68.0142 50.4544 68.2791 50.4421 68.5221C50.4598 68.7628 50.5091 68.918 50.5899 68.9876C50.753 69.3537 51.0215 69.7121 51.3953 70.0626C51.769 70.4132 52.1846 70.7153 52.642 70.9689C53.1295 71.2203 53.6264 71.3954 54.1329 71.4941C54.6694 71.5907 55.175 71.576 55.6498 71.4502C55.7195 71.3694 55.7061 71.1889 55.6098 70.9086C55.5296 70.6423 55.3999 70.3191 55.2206 69.939C55.0552 69.5428 54.8575 69.1188 54.6275 68.6669C54.4137 68.2289 54.2149 67.7898 54.0311 67.3496C53.8635 66.9233 53.7352 66.5168 53.6461 66.1301C53.5732 65.7573 53.573 65.4472 53.6455 65.1999C53.7085 65.0288 53.7635 64.8508 53.8103 64.6659C53.8711 64.4647 53.9213 64.3249 53.9608 64.2463C54.1866 63.8213 54.4631 63.4681 54.7902 63.1868C55.1312 62.8894 55.4859 62.6741 55.8543 62.541C56.2226 62.408 56.5976 62.3651 56.9792 62.4126C57.3748 62.4439 57.747 62.5677 58.0957 62.784C58.6361 63.1373 59.153 63.5832 59.6466 64.1216C60.1702 64.6577 60.5107 65.2754 60.6682 65.9747C60.6999 66.1993 60.6982 66.3809 60.6631 66.5196C60.6441 66.6723 60.595 66.8272 60.5159 66.9843C60.4624 67.079 60.4089 67.1737 60.3553 67.2684C60.3158 67.3469 60.2288 67.3987 60.0945 67.4238ZM69.5896 78.9095C70.4349 78.6807 71.2554 78.6277 72.051 78.7505C72.8605 78.8571 73.5837 79.2272 74.2203 79.8609C74.3033 79.9606 74.3735 80.0916 74.4309 80.2537C74.5021 80.3997 74.5653 80.5388 74.6205 80.6708C74.7513 81.0091 74.8103 81.398 74.7974 81.8376C74.7984 82.2611 74.7403 82.704 74.6232 83.1664C74.5362 83.6266 74.4029 84.0751 74.2234 84.5119C74.0438 84.9487 73.8529 85.3334 73.6506 85.666C73.5296 85.8715 73.3588 86.1186 73.1381 86.4071C72.9174 86.6957 72.7095 86.9531 72.5144 87.1792C72.4821 87.1514 72.459 87.1455 72.445 87.1617C72.4311 87.1778 72.4149 87.1639 72.3966 87.1199C72.3231 86.9438 72.2947 86.7644 72.3115 86.5816C72.307 86.5214 72.2864 86.4473 72.2497 86.3593C72.2269 86.2551 72.2352 86.1637 72.2748 86.0852C72.3818 85.8957 72.5226 85.6509 72.6971 85.3506C72.9016 85.0481 73.0878 84.7016 73.2556 84.3111C73.4234 83.9205 73.56 83.5172 73.6654 83.101C73.7848 82.6687 73.837 82.2488 73.822 81.8415C73.8109 81.6911 73.787 81.5719 73.7502 81.4838C73.7436 81.3936 73.7208 81.2894 73.6818 81.1712C73.6568 81.0369 73.5704 80.8921 73.4228 80.7366C73.2891 80.5649 73.1518 80.4465 73.0109 80.3813C72.6666 80.2252 72.2434 80.1278 71.7414 80.0893C71.2394 80.0507 70.729 80.1035 70.2103 80.2477C69.7054 80.3757 69.2164 80.616 68.7433 80.9686C68.2702 81.3211 67.9065 81.8245 67.6523 82.4785C67.5753 82.6657 67.5031 82.8147 67.4357 82.9256C67.3822 83.0203 67.3125 83.1011 67.2267 83.1679C67.157 83.2487 67.0562 83.3166 66.9241 83.3718C66.792 83.4269 66.6159 83.5004 66.3958 83.5923C66.0994 83.6747 65.8275 83.6796 65.5801 83.6071C65.3489 83.5486 65.1269 83.512 64.9141 83.4975C65.602 81.7526 66.395 80.0982 67.293 78.5345C68.2072 76.9846 69.1475 75.5841 70.114 74.333C71.0966 73.0957 72.0775 72.0401 73.0566 71.1662C74.0497 70.276 74.9692 69.6182 75.8151 69.1928C76.0308 69.0407 76.2055 69.0505 76.3392 69.2222C76.406 69.308 76.4427 69.396 76.4494 69.4863C76.4561 69.5765 76.465 69.6969 76.4761 69.8473C76.471 69.9838 76.4649 70.1053 76.4576 70.2117C76.4642 70.302 76.4339 70.4026 76.3664 70.5134C76.3129 70.6081 76.3185 70.6833 76.3831 70.7391C76.4477 70.7948 76.4371 70.8561 76.3513 70.9229C75.4395 71.686 74.632 72.4263 73.9287 73.1438C73.2253 73.8613 72.6031 74.55 72.0619 75.2102C71.5369 75.8842 71.0779 76.5307 70.6849 77.1496C70.2919 77.7685 69.9269 78.3552 69.5896 78.9095ZM84.1892 86.6419C84.2047 86.8525 84.1983 87.0723 84.1698 87.3013C84.1552 87.5142 84.1176 87.7212 84.0568 87.9223C83.9213 88.3407 83.7212 88.7034 83.4564 89.0103C83.2218 89.315 82.8022 89.5729 82.1976 89.7839C81.5328 89.9994 80.85 90.0725 80.1491 90.0032C79.4643 89.9479 78.8367 89.7446 78.2663 89.3934C77.8551 89.1515 77.4997 88.845 77.2001 88.4738C76.9143 88.0865 76.7144 87.6324 76.6003 87.1114C76.4337 87.1086 76.2485 87.1601 76.0445 87.2659C75.8706 87.3695 75.7361 87.4928 75.6407 87.636C75.478 87.8901 75.3428 88.2101 75.2352 88.5962C75.1576 88.9801 75.1578 89.2902 75.2358 89.5264C75.4129 89.8764 75.7855 90.2119 76.3538 90.533C76.9382 90.868 77.5886 91.1754 78.305 91.4553C79.0516 91.7329 79.7959 91.9805 80.538 92.198C81.3102 92.4133 81.9668 92.5992 82.5078 92.7559C82.4242 92.8529 82.3442 92.8966 82.2679 92.8871C82.2077 92.8915 82.1105 92.9063 81.9762 92.9313C81.8257 92.9424 81.6533 92.9627 81.4588 92.9922C81.2644 93.0217 81.0677 93.0211 80.8688 92.9904C80.6236 92.948 80.391 92.9727 80.1709 93.0646C79.9647 93.1403 79.6928 93.1453 79.3552 93.0794C78.9089 92.9762 78.4476 92.8742 77.9712 92.7732C77.525 92.67 77.0857 92.5587 76.6533 92.4394C76.2349 92.3039 75.8293 92.1372 75.4366 91.9393C75.0739 91.7392 74.753 91.4906 74.474 91.1936C74.2918 90.9801 74.1629 90.7703 74.0872 90.5641C74.0276 90.3719 73.9705 90.1114 73.916 89.7827C73.8888 89.6183 73.8453 89.44 73.7858 89.2477C73.7262 89.0555 73.6989 88.8911 73.704 88.7546C73.7777 88.1139 73.9612 87.5256 74.2544 86.9896C74.5615 86.4375 74.9344 85.9562 75.373 85.5457C75.8417 85.133 76.353 84.7851 76.9069 84.5022C77.4747 84.2032 78.0642 83.9933 78.6755 83.8725C79.0182 83.8018 79.3932 83.759 79.8005 83.7441C80.2379 83.7269 80.6635 83.756 81.0775 83.8313C81.5215 83.9044 81.9388 84.0249 82.3294 84.1927C82.7361 84.3744 83.094 84.6127 83.4031 84.9075C83.5185 85.0351 83.5967 85.1731 83.6379 85.3213C83.7092 85.4673 83.7816 85.6283 83.8551 85.8044C83.908 85.9064 83.9631 86.0384 84.0205 86.2006C84.1079 86.3605 84.1641 86.5076 84.1892 86.6419ZM82.2533 87.4655C82.3464 87.2922 82.369 87.0864 82.3212 86.8479C82.2733 86.6094 82.1884 86.3812 82.0665 86.1633C81.9584 85.9293 81.8225 85.7276 81.6587 85.5581C81.495 85.3887 81.3588 85.2853 81.2501 85.248C81.0791 85.185 80.849 85.1415 80.5598 85.1174C80.3008 85.0912 80.0208 85.0892 79.7199 85.1114C79.4352 85.1475 79.1365 85.1998 78.8239 85.2683C78.5414 85.3345 78.2982 85.4205 78.0942 85.5263C78.0201 85.5469 77.9181 85.5998 77.7883 85.685C77.6885 85.768 77.6339 85.8477 77.6244 85.924C77.6093 86.3336 77.7956 86.7055 78.1833 87.0399C78.5548 87.3604 79.0273 87.6129 79.6005 87.7975C80.19 87.996 80.6572 88.0749 81.0021 88.0343C81.0461 88.016 81.1272 87.9873 81.2453 87.9483C81.3796 87.9233 81.5127 87.8832 81.6448 87.8281C81.7769 87.7729 81.9009 87.7109 82.0168 87.6418C82.1488 87.5867 82.2277 87.5279 82.2533 87.4655ZM94.5608 94.9536C94.4354 95.099 94.2994 95.3057 94.1528 95.5737C94.0201 95.8255 93.8577 95.9812 93.6654 96.0407C93.6053 96.0452 93.5334 96.0959 93.4498 96.1928C93.3801 96.2736 93.3071 96.3092 93.2308 96.2997L93.083 95.8342C92.9359 95.482 92.6939 95.1746 92.3569 94.9121C92.036 94.6635 91.6583 94.4645 91.2238 94.3151C90.914 94.217 90.5694 94.1592 90.19 94.1418C89.8406 94.1223 89.4785 94.1339 89.1035 94.1767C88.7285 94.2195 88.3627 94.2843 88.0061 94.3711C87.6494 94.458 87.324 94.5576 87.0298 94.6701C86.3673 94.9156 85.7504 95.3696 85.1791 96.0319C84.624 96.7082 84.1278 97.7734 83.6906 99.2275C83.5931 99.3406 83.3939 99.4082 83.093 99.4305C83.0328 99.4349 82.9507 99.4485 82.8465 99.4713C82.7423 99.4942 82.6601 99.5078 82.5999 99.5122C82.3731 99.5138 82.2088 99.5411 82.1068 99.594C82.021 99.6609 81.9237 99.6756 81.8151 99.6382C81.6441 99.5752 81.6204 99.3577 81.7442 98.9855C81.8876 98.264 82.1296 97.4444 82.4703 96.5269C82.841 95.6071 83.2338 94.6781 83.6486 93.7399C84.0795 92.8156 84.4987 91.9376 84.9062 91.1059C85.3438 90.2719 85.7162 89.5789 86.0233 89.0268C86.0863 88.8557 86.1827 88.7276 86.3126 88.6424C86.4563 88.541 86.5954 88.4778 86.7297 88.4528C86.8339 88.43 86.9043 88.4626 86.9411 88.5506C86.994 88.6526 87.0447 88.7245 87.0931 88.7663C87.3031 88.9474 87.3975 89.0993 87.3763 89.2218C87.3551 89.3444 87.3453 89.5191 87.347 89.7459C87.3502 90.1994 87.2283 90.7 86.9814 91.2476C86.7344 91.7953 86.4501 92.4516 86.1284 93.2165C86.7631 93.0032 87.4565 92.8689 88.2087 92.8133C88.9771 92.7717 89.7429 92.7984 90.5062 92.8933C91.2834 92.972 92.0211 93.1294 92.7192 93.3652C93.4173 93.6011 94.0295 93.9038 94.556 94.2733C94.6668 94.3408 94.7197 94.4427 94.7147 94.5792C94.7397 94.7135 94.6884 94.8383 94.5608 94.9536ZM100.92 101.072C100.935 101.283 100.929 101.502 100.9 101.731C100.886 101.944 100.848 102.151 100.787 102.352C100.652 102.771 100.452 103.133 100.187 103.44C99.9522 103.745 99.5326 104.003 98.928 104.214C98.2633 104.429 97.5804 104.503 96.8795 104.433C96.1948 104.378 95.5672 104.175 94.9967 103.824C94.5856 103.582 94.2302 103.275 93.9305 102.904C93.6448 102.517 93.4448 102.062 93.3308 101.541C93.1642 101.539 92.9789 101.59 92.7749 101.696C92.6011 101.8 92.4665 101.923 92.3712 102.066C92.2084 102.32 92.0732 102.64 91.9656 103.026C91.888 103.41 91.8882 103.72 91.9662 103.956C92.1433 104.306 92.5159 104.642 93.0842 104.963C93.6686 105.298 94.319 105.605 95.0355 105.885C95.782 106.163 96.5263 106.411 97.2684 106.628C98.0406 106.843 98.6972 107.029 99.2382 107.186C99.1546 107.283 99.0746 107.327 98.9983 107.317C98.9381 107.322 98.8409 107.336 98.7066 107.361C98.5562 107.372 98.3837 107.393 98.1892 107.422C97.9948 107.452 97.7981 107.451 97.5992 107.42C97.3541 107.378 97.1214 107.403 96.9013 107.495C96.6951 107.57 96.4232 107.575 96.0856 107.509C95.6393 107.406 95.178 107.304 94.7017 107.203C94.2554 107.1 93.8161 106.989 93.3837 106.869C92.9653 106.734 92.5598 106.567 92.167 106.369C91.8043 106.169 91.4835 105.921 91.2044 105.624C91.0222 105.41 90.8933 105.2 90.8176 104.994C90.758 104.802 90.701 104.541 90.6465 104.213C90.6192 104.048 90.5758 103.87 90.5162 103.678C90.4566 103.486 90.4294 103.321 90.4344 103.185C90.5081 102.544 90.6916 101.956 90.9848 101.42C91.2919 100.868 91.6648 100.386 92.1034 99.9758C92.5721 99.563 93.0834 99.2152 93.6373 98.9323C94.2051 98.6332 94.7947 98.4233 95.4059 98.3026C95.7486 98.2319 96.1236 98.1891 96.5309 98.1741C96.9683 98.157 97.394 98.186 97.8079 98.2614C98.252 98.3345 98.6693 98.4549 99.0598 98.6227C99.4665 98.8045 99.8244 99.0428 100.134 99.3376C100.249 99.4652 100.327 99.6031 100.368 99.7513C100.44 99.8973 100.512 100.058 100.585 100.234C100.638 100.336 100.694 100.469 100.751 100.631C100.838 100.791 100.895 100.938 100.92 101.072ZM98.9838 101.896C99.0769 101.722 99.0995 101.516 99.0516 101.278C99.0038 101.039 98.9188 100.811 98.7969 100.593C98.6888 100.359 98.5529 100.158 98.3892 99.9882C98.2254 99.8188 98.0892 99.7154 97.9806 99.678C97.8095 99.615 97.5794 99.5715 97.2903 99.5475C97.0312 99.5212 96.7512 99.5192 96.4503 99.5414C96.1656 99.5776 95.8669 99.6299 95.5543 99.6983C95.2718 99.7646 95.0286 99.8506 94.8247 99.9564C94.7505 99.977 94.6486 100.03 94.5187 100.115C94.419 100.198 94.3643 100.278 94.3549 100.354C94.3397 100.764 94.526 101.136 94.9137 101.47C95.2853 101.79 95.7577 102.043 96.331 102.228C96.9204 102.426 97.3876 102.505 97.7325 102.464C97.7765 102.446 97.8576 102.417 97.9757 102.378C98.11 102.353 98.2432 102.313 98.3752 102.258C98.5073 102.203 98.6313 102.141 98.7472 102.072C98.8793 102.017 98.9581 101.958 98.9838 101.896ZM118.418 107.797C117.834 108.279 117.198 108.787 116.511 109.322C115.841 109.871 115.171 110.419 114.5 110.968C113.83 111.517 113.196 112.055 112.6 112.583C112.004 113.111 111.502 113.594 111.096 114.033L109.813 114.786C109.602 114.801 109.411 114.876 109.24 115.009C109.068 115.143 108.906 115.299 108.752 115.476C108.599 115.654 108.446 115.832 108.292 116.01C108.155 116.201 108.008 116.356 107.85 116.473C107.764 116.54 107.623 116.573 107.426 116.573C107.26 116.57 107.123 116.565 107.017 116.558C106.911 116.55 106.849 116.54 106.833 116.526C106.817 116.512 106.744 116.449 106.615 116.338C107.317 115.393 108.08 114.46 108.904 113.537C109.742 112.598 110.599 111.702 111.474 110.851C112.379 109.998 113.296 109.212 114.227 108.493C115.171 107.757 116.099 107.122 117.013 106.585C117.163 106.574 117.286 106.595 117.38 106.649C117.505 106.7 117.66 106.749 117.845 106.796C118.167 106.848 118.408 106.944 118.57 107.083C118.595 107.217 118.59 107.354 118.554 107.492C118.549 107.629 118.504 107.731 118.418 107.797ZM105.722 119.92C105.691 120.316 105.489 120.55 105.116 120.623C104.774 120.694 104.44 120.688 104.117 120.606C103.869 120.534 103.719 120.446 103.666 120.344C103.63 120.256 103.577 120.154 103.508 120.038C103.471 119.95 103.393 119.812 103.273 119.625C103.155 119.467 103.107 119.327 103.128 119.204C103.169 118.929 103.255 118.665 103.388 118.414C103.523 118.192 103.694 117.96 103.903 117.718C103.987 117.621 104.097 117.575 104.234 117.58C104.356 117.601 104.488 117.644 104.629 117.709C104.772 117.805 104.9 117.901 105.013 117.999C105.126 118.096 105.216 118.188 105.283 118.274C105.387 118.448 105.42 118.589 105.383 118.697C105.331 118.822 105.318 118.952 105.343 119.086C105.402 119.475 105.529 119.753 105.722 119.92Z" fill="white"/>
</svg>
