<svg width="15" height="12" viewBox="0 0 15 12" fill="none" xmlns="http://www.w3.org/2000/svg">
<path fill-rule="evenodd" clip-rule="evenodd" d="M8.99899 11.671H10.496V11.6643H12.7451C13.9851 11.6643 14.9942 10.5429 14.9942 9.16482L14.9942 2.4995C14.9942 1.12144 13.9851 0 12.7451 0H2.24914C1.00911 0 0 1.12144 0 2.4995V9.16482C0 10.5429 1.00911 11.6643 2.24914 11.6643H4.49828V11.671H6.00014V11.6566H8.99899V11.671ZM5.24924 1.66612L9.74751 1.66612L9.74751 9.99777L5.24924 9.99778L5.24924 1.66612ZM2.24847 1.67112C1.83538 1.67112 1.49875 2.04521 1.49876 2.50428L1.49876 9.16961C1.49876 9.62868 1.83538 10.0028 2.24847 10.0028H3.74789L3.74789 1.67112L2.24847 1.67112ZM13.4941 2.50428V9.16961C13.4941 9.62868 13.1575 10.0028 12.7444 10.0028H11.245L11.245 1.67112L12.7444 1.67112C13.1575 1.67112 13.4941 2.04521 13.4941 2.50428Z" fill="#DADADA"/>
</svg>
