<svg id="wave" style="transform:rotate(0deg); transition: 0.3s" viewBox="0 0 1440 290" version="1.1" xmlns="http://www.w3.org/2000/svg"><defs><linearGradient id="sw-gradient-0" x1="0" x2="0" y1="1" y2="0"><stop stop-color="rgba(30, 28, 80, 1)" offset="0%"></stop><stop stop-color="rgba(30, 28, 80, 1)" offset="100%"></stop></linearGradient></defs><path style="transform:translate(0, 0px); opacity:1" fill="url(#sw-gradient-0)" d="M0,145L40,154.7C80,164,160,184,240,203C320,222,400,242,480,222.3C560,203,640,145,720,111.2C800,77,880,68,960,77.3C1040,87,1120,116,1200,149.8C1280,184,1360,222,1440,212.7C1520,203,1600,145,1680,135.3C1760,126,1840,164,1920,178.8C2000,193,2080,184,2160,178.8C2240,174,2320,174,2400,178.8C2480,184,2560,193,2640,169.2C2720,145,2800,87,2880,96.7C2960,106,3040,184,3120,188.5C3200,193,3280,126,3360,101.5C3440,77,3520,97,3600,120.8C3680,145,3760,174,3840,188.5C3920,203,4000,203,4080,203C4160,203,4240,203,4320,203C4400,203,4480,203,4560,188.5C4640,174,4720,145,4800,140.2C4880,135,4960,155,5040,164.3C5120,174,5200,174,5280,178.8C5360,184,5440,193,5520,178.8C5600,164,5680,126,5720,106.3L5760,87L5760,290L5720,290C5680,290,5600,290,5520,290C5440,290,5360,290,5280,290C5200,290,5120,290,5040,290C4960,290,4880,290,4800,290C4720,290,4640,290,4560,290C4480,290,4400,290,4320,290C4240,290,4160,290,4080,290C4000,290,3920,290,3840,290C3760,290,3680,290,3600,290C3520,290,3440,290,3360,290C3280,290,3200,290,3120,290C3040,290,2960,290,2880,290C2800,290,2720,290,2640,290C2560,290,2480,290,2400,290C2320,290,2240,290,2160,290C2080,290,2000,290,1920,290C1840,290,1760,290,1680,290C1600,290,1520,290,1440,290C1360,290,1280,290,1200,290C1120,290,1040,290,960,290C880,290,800,290,720,290C640,290,560,290,480,290C400,290,320,290,240,290C160,290,80,290,40,290L0,290Z"></path></svg>
