<svg width="30" height="30" viewBox="0 0 40 40" fill="none" xmlns="http://www.w3.org/2000/svg">
<path d="M19.9271 40C16.0698 40.0015 12.2986 38.8295 9.09079 36.6325C5.88293 34.4354 3.38246 31.3119 1.90566 27.6571C0.428856 24.0023 0.0420845 19.9803 0.794267 16.1C1.54645 12.2197 3.40378 8.65536 6.13134 5.85787C8.8589 3.06037 12.3341 1.15541 16.1174 0.383944C19.9007 -0.387525 23.8221 0.00916278 27.3856 1.52383C30.949 3.0385 33.9944 5.60308 36.1366 8.8932C38.2787 12.1833 39.4213 16.0511 39.4199 20.0074C39.4142 25.308 37.3587 30.3898 33.7043 34.1378C30.0499 37.8859 25.0952 39.9941 19.9271 40ZM19.9271 1.91004C16.437 1.90858 13.0248 2.96872 10.1222 4.95639C7.21953 6.94407 4.95682 9.76999 3.62021 13.0767C2.28361 16.3834 1.93316 20.0224 2.61318 23.5335C3.29321 27.0445 4.97315 30.2698 7.44055 32.8015C9.90795 35.3332 13.0519 37.0576 16.4749 37.7564C19.8979 38.4553 23.4461 38.0974 26.6707 36.7279C29.8953 35.3583 32.6515 33.0387 34.5906 30.0625C36.5298 27.0862 37.5648 23.587 37.5648 20.0074C37.561 15.2101 35.7018 10.6104 32.3951 7.21754C29.0884 3.82469 24.6044 1.9159 19.9271 1.91004ZM26.499 11.8879C26.2146 11.8879 25.9366 11.9744 25.7001 12.1365C25.4636 12.2985 25.2793 12.5289 25.1704 12.7984C25.0616 13.0679 25.0331 13.3645 25.0886 13.6506C25.1441 13.9367 25.2811 14.1995 25.4822 14.4058C25.6833 14.612 25.9395 14.7525 26.2185 14.8094C26.4974 14.8663 26.7866 14.8371 27.0493 14.7255C27.3121 14.6139 27.5367 14.4248 27.6947 14.1823C27.8527 13.9397 27.9371 13.6546 27.9371 13.3628C27.9371 12.9729 27.7865 12.5989 27.5184 12.3225C27.2503 12.0461 26.8864 11.8899 26.5062 11.8879H26.499ZM20.0853 13.7906C18.8865 13.7906 17.7146 14.1552 16.7178 14.8383C15.721 15.5214 14.9441 16.4923 14.4853 17.6283C14.0265 18.7643 13.9065 20.0143 14.1404 21.2202C14.3742 22.4262 14.9516 23.5339 15.7993 24.4033C16.647 25.2728 17.727 25.8649 18.9028 26.1047C20.0786 26.3446 21.2973 26.2215 22.4049 25.751C23.5125 25.2804 24.4591 24.4836 25.1252 23.4613C25.7912 22.4389 26.1467 21.2369 26.1467 20.0074C26.1448 18.3605 25.5066 16.7814 24.3718 15.6162C23.237 14.4509 21.6983 13.7945 20.0925 13.7906H20.0853ZM20.0853 23.9823C19.3171 23.9823 18.5661 23.7486 17.9274 23.3106C17.2887 22.8727 16.7911 22.2504 16.4974 21.5223C16.2038 20.7942 16.1273 19.9931 16.2777 19.2204C16.4281 18.4477 16.7986 17.7381 17.3423 17.1815C17.8861 16.6248 18.5786 16.2462 19.3322 16.0933C20.0859 15.9405 20.8668 16.0204 21.5762 16.323C22.2855 16.6255 22.8914 17.1371 23.3172 17.7929C23.743 18.4488 23.9695 19.2194 23.968 20.0074C23.9661 21.061 23.5572 22.0709 22.8308 22.8159C22.1044 23.5609 21.1198 23.9804 20.0925 23.9823H20.0853ZM32.3088 14.8378C32.3088 12.8348 31.536 10.9132 30.1591 9.49269C28.7822 8.07222 26.9132 7.26834 24.9603 7.25665H15.1744C13.214 7.25665 11.3339 8.05537 9.9477 9.4771C8.56151 10.8988 7.78275 12.8271 7.78275 14.8378V24.8451C7.78275 26.8558 8.56151 28.7841 9.9477 30.2058C11.3339 31.6275 13.214 32.4263 15.1744 32.4263H24.9603C26.9207 32.4263 28.8007 31.6275 30.1869 30.2058C31.5731 28.7841 32.3519 26.8558 32.3519 24.8451L32.3088 14.8378ZM29.9935 24.8451C29.9935 26.226 29.4587 27.5503 28.5067 28.5267C27.5547 29.5031 26.2635 30.0516 24.9172 30.0516H15.1744C13.828 30.0516 12.5368 29.5031 11.5848 28.5267C10.6329 27.5503 10.098 26.226 10.098 24.8451V14.8378C10.098 13.4569 10.6329 12.1326 11.5848 11.1562C12.5368 10.1798 13.828 9.63127 15.1744 9.63127H24.9603C26.3066 9.63127 27.5978 10.1798 28.5498 11.1562C29.5018 12.1326 30.0366 13.4569 30.0366 14.8378L29.9935 24.8451Z" fill="white"/>
</svg>
