<svg width="30" height="30" viewBox="0 0 40 40" fill="none" xmlns="http://www.w3.org/2000/svg">
<path d="M19.6811 39.5164C15.7885 39.5164 11.9834 38.3621 8.74686 36.1996C5.51033 34.037 2.98775 30.9632 1.49814 27.367C0.00853169 23.7707 -0.381224 19.8135 0.378173 15.9958C1.13757 12.178 3.012 8.67121 5.76445 5.91877C8.51689 3.16632 12.0237 1.29187 15.8415 0.53247C19.6592 -0.226927 23.6164 0.162829 27.2127 1.65244C30.8089 3.14205 33.8827 5.66463 36.0452 8.90116C38.2078 12.1377 39.3621 15.9428 39.3621 19.8354C39.3545 25.0527 37.2785 30.0543 33.5892 33.7435C29.9 37.4328 24.8984 39.5088 19.6811 39.5164ZM19.6811 2.2777C16.2088 2.27913 12.8149 3.31008 9.9285 5.24021C7.04211 7.17034 4.79283 9.91296 3.46504 13.1213C2.13725 16.3297 1.79059 19.8597 2.46887 23.2651C3.14716 26.6705 4.81992 29.7983 7.27569 32.253C9.73146 34.7078 12.8599 36.3793 16.2656 37.0562C19.6713 37.7331 23.2011 37.3849 26.409 36.0558C29.6168 34.7267 32.3585 32.4763 34.2874 29.5891C36.2164 26.7019 37.2459 23.3076 37.2459 19.8354C37.2469 17.5278 36.7933 15.2426 35.9111 13.1103C35.0289 10.978 33.7354 9.04027 32.1043 7.40788C30.4733 5.77549 28.5366 4.48035 26.405 3.59639C24.2735 2.71243 21.9887 2.25698 19.6811 2.25603V2.2777Z" fill="white"/>
<path d="M30.8037 21.3299V28.6823C30.8037 28.7685 30.7695 28.8512 30.7085 28.9121C30.6476 28.9731 30.5649 29.0073 30.4787 29.0073H26.687C26.6001 29.0074 26.5167 28.9733 26.4546 28.9126C26.3925 28.8518 26.3566 28.7692 26.3547 28.6823V21.8499C26.3547 20.0516 25.7119 18.8237 24.1013 18.8237C23.5999 18.8265 23.1115 18.9841 22.703 19.275C22.2944 19.5658 21.9857 19.9758 21.8191 20.4488C21.7071 20.7985 21.6582 21.1653 21.6746 21.5321V28.6823C21.6727 28.7692 21.6369 28.8518 21.5748 28.9126C21.5127 28.9733 21.4293 29.0074 21.3424 29.0073H17.5506C17.5077 29.0083 17.465 29.0006 17.4251 28.9846C17.3852 28.9686 17.349 28.9447 17.3186 28.9143C17.2882 28.884 17.2643 28.8477 17.2484 28.8079C17.2324 28.768 17.2246 28.7253 17.2256 28.6823C17.2256 26.8623 17.269 18.0293 17.2256 15.9565C17.2247 15.9132 17.2324 15.8701 17.2483 15.8299C17.2642 15.7896 17.2879 15.7529 17.3182 15.722C17.3485 15.691 17.3847 15.6664 17.4246 15.6496C17.4645 15.6329 17.5073 15.6242 17.5506 15.6242H21.3352C21.4221 15.6242 21.5055 15.6582 21.5676 15.719C21.6297 15.7797 21.6655 15.8624 21.6674 15.9492V17.5237C22.0692 16.8232 22.6553 16.2462 23.362 15.8553C24.0686 15.4644 24.8689 15.2746 25.6758 15.3064C28.6081 15.3064 30.7965 17.2204 30.7965 21.3299H30.8037ZM10.6388 28.9784H14.4305C14.5174 28.9785 14.6009 28.9445 14.663 28.8837C14.7251 28.823 14.7609 28.7403 14.7628 28.6534V15.9781C14.7609 15.8913 14.7251 15.8086 14.663 15.7479C14.6009 15.6871 14.5174 15.6531 14.4305 15.6531H10.6388C10.5526 15.6531 10.4699 15.6873 10.409 15.7483C10.348 15.8092 10.3138 15.8919 10.3138 15.9781V28.7112C10.3275 28.7871 10.3677 28.8556 10.4272 28.9045C10.4867 28.9535 10.5617 28.9797 10.6388 28.9784Z" fill="white"/>
<path d="M12.408 13.9195C13.7243 13.9195 14.7914 12.8524 14.7914 11.5361C14.7914 10.2198 13.7243 9.15267 12.408 9.15267C11.0917 9.15267 10.0246 10.2198 10.0246 11.5361C10.0246 12.8524 11.0917 13.9195 12.408 13.9195Z" fill="white"/>
</svg>
