<svg width="51" height="51" viewBox="0 0 51 51" fill="none" xmlns="http://www.w3.org/2000/svg">
<path class="path_1" d="M21.5156 8.78711H37.68C40.0686 8.78711 42.0049 10.7234 42.0049 13.112V28.3033" stroke="url(#paint0_linear_0_1)" />
<path class="path_2" d="M42.0059 28.0332V44.1976C42.0059 46.5862 40.0695 48.5225 37.6809 48.5225H22.4897" stroke="url(#paint0_linear_0_1)" />
<path class="path_3" d="M2 29.2227L2 13.0582C2 10.6697 3.93633 8.73332 6.32492 8.73332H21.5162" stroke="url(#paint0_linear_0_1)" />
<path class="path_4" d="M22.543 48.5215H6.37859C3.99 48.5215 2.05367 46.5852 2.05367 44.1966L2.05367 29.0053" stroke="url(#paint0_linear_0_1)" />
<path class="path_5" d="M9.91602 3H42.5391C45.5545 3 47.999 5.4445 47.999 8.45993V41.6291" stroke="url(#paint0_linear_0_1)"  stroke-linecap="round"/>
<g filter="url(#filter0_d_0_1)">

<path d="M27.1849 40.8098H18.1141V22.519H9.91602V17.332H35.36V22.519H27.1849V40.8098Z" fill="#FFFAFA"/>
<path d="M26.7004 22.519V40.3253H18.5986V22.519V22.0345H18.1141H10.4005V17.8165H34.8755V22.0345H27.1849H26.7004V22.519Z" stroke="url(#paint0_linear_0_1)" stroke-width="0.968941"/>
</g>
<defs>
<filter id="filter0_d_0_1" x="7.60085" y="16.1744" width="30.0737" height="28.1088" filterUnits="userSpaceOnUse" color-interpolation-filters="sRGB">
<feFlood flood-opacity="0" result="BackgroundImageFix"/>
<feColorMatrix in="SourceAlpha" type="matrix" values="0 0 0 0 0 0 0 0 0 0 0 0 0 0 0 0 0 0 127 0" result="hardAlpha"/>
<feOffset dy="1.15758"/>
<feGaussianBlur stdDeviation="1.15758"/>
<feComposite in2="hardAlpha" operator="out"/>
<feColorMatrix type="matrix" values="0 0 0 0 0 0 0 0 0 0 0 0 0 0 0 0 0 0 0.25 0"/>
<feBlend mode="normal" in2="BackgroundImageFix" result="effect1_dropShadow_0_1"/>
<feBlend mode="normal" in="SourceGraphic" in2="effect1_dropShadow_0_1" result="shape"/>
</filter>
<linearGradient id="paint0_linear_0_1" x1="22.638" y1="17.332" x2="22.638" y2="40.8098" gradientUnits="userSpaceOnUse">
<stop class="stop_1"/>
<stop class="stop_2" offset="0.535" />
<stop  class="stop_3" offset="1" />
</linearGradient>
</defs>
</svg>
