<svg width="220" height="40" viewBox="0 0 342 63" fill="none" xmlns="http://www.w3.org/2000/svg">
<path d="M73.5267 17.6809H95.1456V21.5616H86.2681V44.8269H82.4042V21.5616H73.5267V17.6809Z" fill="white"/>
<path d="M123.55 27.3732C123.55 31.1593 121.941 33.3173 118.725 33.8474L123.814 44.8269H119.535L114.521 33.9799H106.059V44.8269H102.195V17.6809H116.991C121.363 17.6809 123.55 19.8831 123.55 24.2876V27.3732ZM106.059 30.0992H116.783C117.814 30.0992 118.555 29.872 119.007 29.4177C119.46 28.9633 119.686 28.2188 119.686 27.1839V24.4769C119.686 23.442 119.46 22.6974 119.007 22.2431C118.555 21.7888 117.814 21.5616 116.783 21.5616H106.059V30.0992Z" fill="white"/>
<path d="M132.427 17.6809H136.291V40.9462H151.728V17.6809H155.592V40.9462C155.592 41.4763 155.491 41.9811 155.29 42.4606C155.089 42.9276 154.813 43.3377 154.461 43.6911C154.109 44.0445 153.694 44.3221 153.217 44.524C152.752 44.726 152.256 44.8269 151.728 44.8269H136.291C135.763 44.8269 135.261 44.726 134.783 44.524C134.318 44.3221 133.91 44.0445 133.558 43.6911C133.206 43.3377 132.93 42.9276 132.729 42.4606C132.528 41.9811 132.427 41.4763 132.427 40.9462V17.6809Z" fill="white"/>
<path d="M164.959 17.6809H184.656V21.5616H168.823V29.323H182.337V33.2037H168.823V40.9462H184.656V44.8269H164.959V17.6809Z" fill="white"/>
<path d="M210.704 33.2037C210.176 33.2037 209.673 33.1028 209.196 32.9008C208.731 32.6863 208.323 32.4087 207.971 32.0679C207.619 31.7145 207.342 31.3044 207.141 30.8374C206.94 30.3579 206.84 29.8531 206.84 29.323V21.5616C206.84 21.0316 206.94 20.5331 207.141 20.0661C207.342 19.5865 207.619 19.1764 207.971 18.8356C208.323 18.4823 208.731 18.2046 209.196 18.0027C209.673 17.7882 210.176 17.6809 210.704 17.6809H223.822C224.35 17.6809 224.846 17.7882 225.311 18.0027C225.788 18.2046 226.203 18.4823 226.555 18.8356C226.907 19.1764 227.183 19.5865 227.384 20.0661C227.585 20.5331 227.686 21.0316 227.686 21.5616V25.0637H223.822V21.5616H210.704V29.323H223.822C224.35 29.323 224.846 29.424 225.311 29.6259C225.788 29.8278 226.203 30.1055 226.555 30.4588C226.907 30.8122 227.183 31.2287 227.384 31.7082C227.585 32.1752 227.686 32.6737 227.686 33.2037V40.9462C227.686 41.4763 227.585 41.9811 227.384 42.4606C227.183 42.9276 226.907 43.3377 226.555 43.6911C226.203 44.0445 225.788 44.3221 225.311 44.524C224.846 44.726 224.35 44.8269 223.822 44.8269H210.327C209.799 44.8269 209.296 44.726 208.819 44.524C208.354 44.3221 207.946 44.0445 207.594 43.6911C207.242 43.3377 206.965 42.9276 206.764 42.4606C206.563 41.9811 206.463 41.4763 206.463 40.9462V37.463H210.327V40.9462H223.822V33.2037H210.704Z" fill="white"/>
<path d="M237.072 21.5616C237.072 21.0316 237.173 20.5331 237.374 20.0661C237.575 19.5865 237.851 19.1764 238.203 18.8356C238.555 18.4823 238.963 18.2046 239.428 18.0027C239.906 17.7882 240.408 17.6809 240.936 17.6809H255.6C256.128 17.6809 256.624 17.7882 257.089 18.0027C257.567 18.2046 257.981 18.4823 258.333 18.8356C258.685 19.1764 258.961 19.5865 259.162 20.0661C259.363 20.5331 259.464 21.0316 259.464 21.5616V25.0637H255.6V21.5616H240.936V40.9462H255.6V37.463H259.464V40.9462C259.464 41.4763 259.363 41.9811 259.162 42.4606C258.961 42.9276 258.685 43.3377 258.333 43.6911C257.981 44.0445 257.567 44.3221 257.089 44.524C256.624 44.726 259.992 46.5845 259.464 46.5845H244.8C244.272 46.5845 239.906 44.726 239.428 44.524C238.963 44.3221 238.555 44.0445 238.203 43.6911C237.851 43.3377 237.575 42.9276 237.374 42.4606C237.173 41.9811 237.072 41.4763 237.072 40.9462V21.5616Z" fill="white"/>
<path d="M280.027 17.6809L290.45 44.8269H286.586L284.193 38.5799H271.998L269.604 44.8269H265.74L276.163 17.6809H280.027ZM273.468 34.6992H282.704L278.105 22.7353L273.468 34.6992Z" fill="white"/>
<path d="M301.363 17.6809V40.9462H315.254V44.8269H297.499V17.6809H301.363Z" fill="white"/>
<path d="M322.304 17.6809H342V21.5616H326.168V29.323H339.682V33.2037H326.168V40.9462H342V44.8269H322.304V17.6809Z" fill="white"/>
<path d="M0 16.6373C0 7.44879 7.41647 0 16.5652 0H46.1616C55.3102 0 62.7267 7.44879 62.7267 16.6373V46.3627C62.7267 55.5512 55.3102 63 46.1616 63H16.5652C7.41647 63 0 55.5512 0 46.3627V16.6373Z" fill="#5B4FE9"/>
<path d="M24.7373 16.6373C24.7373 15.6572 25.5284 14.8627 26.5042 14.8627H62.7267V61.2254C62.7267 62.2055 61.9356 63 60.9598 63H24.7373V16.6373Z" fill="#6073D8"/>
<path d="M24.7373 35.493H62.7267V63H24.7373V35.493Z" fill="#8C97D7"/>
<path d="M24.8726 41.027V19.4778H20.5358L12.38 28.7038L11.9269 15.0845H24.7647L24.8726 15.1724V15.0845H49.2537L48.8006 28.7038L40.4291 19.4778H36.2433V41.027L43.8812 46.5845H17.4936L24.8726 41.027Z" fill="white"/>
</svg>
