<svg width="26" height="26" viewBox="0 0 26 26" xmlns="http://www.w3.org/2000/svg">
<g>
<path fill-rule="evenodd" clip-rule="evenodd" d="M8 17C8 16.45 8.45 16 9 16C9.55 16 10 16.45 10 17C10 17.55 9.55 18 9 18C8.45 18 8 17.55 8 17ZM13 16H17C17.55 16 18 16.45 18 17C18 17.55 17.55 18 17 18H13C12.45 18 12 17.55 12 17C12 16.45 12.45 16 13 16ZM19 21H7C6.449 21 6 20.551 6 20V14H20V20C20 20.551 19.551 21 19 21ZM7 7H8V8C8 8.55 8.45 9 9 9C9.55 9 10 8.55 10 8V7H16V8C16 8.55 16.45 9 17 9C17.55 9 18 8.55 18 8V7H19C19.551 7 20 7.449 20 8V12H6V8C6 7.449 6.449 7 7 7ZM19 5H18V4C18 3.45 17.55 3 17 3C16.45 3 16 3.45 16 4V5H10V4C10 3.45 9.55 3 9 3C8.45 3 8 3.45 8 4V5H7C5.346 5 4 6.346 4 8V20C4 21.654 5.346 23 7 23H19C20.654 23 22 21.654 22 20V8C22 6.346 20.654 5 19 5Z" fill="#CDCDCD"/>
</g>
</svg>
