<svg width="100%%" height="100%" viewBox="0 0 15 15" fill="none"  xmlns="http://www.w3.org/2000/svg" xmlns:xlink="http://www.w3.org/1999/xlink">
<path fill-rule="evenodd" clip-rule="evenodd" d="M13.2157 6.64779H8.1021V1.53416C8.1021 1.06285 7.72028 0.681885 7.24982 0.681885C6.77937 0.681885 6.39755 1.06285 6.39755 1.53416V6.64779H1.28391C0.813459 6.64779 0.431641 7.02876 0.431641 7.50007C0.431641 7.97137 0.813459 8.35234 1.28391 8.35234H6.39755V13.466C6.39755 13.9373 6.77937 14.3182 7.24982 14.3182C7.72028 14.3182 8.1021 13.9373 8.1021 13.466V8.35234H13.2157C13.6862 8.35234 14.068 7.97137 14.068 7.50007C14.068 7.02876 13.6862 6.64779 13.2157 6.64779Z" fill="white"/>
</svg>

