<svg width="18" height="20" viewBox="0 0 38 40" stroke="black"  xmlns="http://www.w3.org/2000/svg">
<path d="M7.91667 4.26191H7.41667V4.53205C5.5657 4.77021 4.02381 6.31162 4.02381 8.33334V31.6667C4.02381 33.8231 5.80714 35.7381 7.91667 35.7381H30.0833C32.1929 35.7381 33.9762 33.8231 33.9762 31.6667V8.33334C33.9762 6.17692 32.1929 4.26191 30.0833 4.26191H7.91667ZM30.0833 39.5H7.91667C3.69286 39.5 0.5 36.1769 0.5 31.6667V8.33334C0.5 4.0516 3.70189 0.5 7.91667 0.5H30.0833C34.0901 0.5 37.5 3.83262 37.5 8.33334V31.6547C37.2793 36.1905 34.0663 39.5 30.0833 39.5Z" />
<path d="M9 11H29"  stroke-width="8"/>
<line x1="9" y1="20" x2="29" y2="20"  stroke-width="3"/>
<line x1="9" y1="29" x2="29" y2="29"  stroke-width="2"/>
</svg>
