<svg width="26" height="26" viewBox="0 0 26 26" fill="none" xmlns="http://www.w3.org/2000/svg">
<g opacity="0.35">
<path fill-rule="evenodd" clip-rule="evenodd" d="M5.40458 12.622C6.52058 13.005 7.40958 13.939 7.78158 15.123L7.82158 15.243C8.24758 16.499 8.07458 17.851 7.36058 18.865C7.23058 19.049 7.25958 19.269 7.39658 19.373L9.46858 20.947C9.54158 21.002 9.61258 21.002 9.65658 20.997C9.70658 20.989 9.77958 20.962 9.83858 20.878L10.0696 20.55C10.7586 19.573 11.8686 18.97 13.0406 18.936C14.3566 18.909 15.5386 19.512 16.2746 20.575L16.3926 20.746C16.4516 20.83 16.5236 20.858 16.5746 20.866C16.6186 20.875 16.6906 20.872 16.7626 20.816L18.8236 19.261C18.9676 19.153 18.9996 18.922 18.8926 18.767L18.6326 18.392C17.9626 17.424 17.7636 16.168 18.1006 15.033C18.4666 13.797 19.3976 12.819 20.5926 12.419L20.7936 12.351C20.9546 12.298 21.0416 12.098 20.9846 11.914L20.1976 9.393C20.1606 9.275 20.0846 9.222 20.0426 9.2C19.9826 9.169 19.9176 9.164 19.8556 9.185L19.5156 9.298C18.3526 9.685 17.0696 9.475 16.0846 8.734L15.9766 8.653C15.0406 7.949 14.4836 6.814 14.4876 5.618L14.4896 5.338C14.4896 5.205 14.4266 5.122 14.3886 5.084C14.3526 5.047 14.2916 5.003 14.2056 5.003L11.6586 5C11.5026 5 11.3756 5.149 11.3746 5.333L11.3736 5.575C11.3686 6.79 10.7996 7.946 9.85158 8.669L9.72258 8.767C8.67958 9.56 7.31958 9.784 6.08758 9.364C6.04058 9.348 5.99658 9.351 5.95458 9.373C5.92258 9.389 5.86458 9.43 5.83658 9.521L5.01958 12.117C4.96058 12.306 5.05758 12.503 5.24058 12.566L5.40458 12.622ZM9.61558 23C9.12958 23 8.65758 22.842 8.25958 22.539L6.18758 20.966C5.19758 20.216 4.97858 18.773 5.69858 17.75C6.07258 17.22 6.14958 16.539 5.92958 15.893L5.87458 15.725C5.69158 15.143 5.27358 14.691 4.75658 14.514H4.75558L4.59258 14.457C3.37458 14.04 2.72458 12.749 3.11158 11.517L3.92758 8.922C4.11258 8.335 4.51158 7.861 5.05158 7.588C5.57958 7.322 6.17658 7.281 6.73458 7.472C7.33358 7.676 7.99858 7.565 8.51158 7.175L8.64058 7.077C9.09658 6.729 9.37158 6.164 9.37358 5.567L9.37458 5.326C9.37958 4.042 10.4046 3 11.6576 3H11.6616L14.2086 3.003C14.8106 3.004 15.3786 3.242 15.8066 3.673C16.2496 4.118 16.4916 4.713 16.4896 5.348L16.4876 5.627C16.4856 6.193 16.7446 6.728 17.1816 7.056L17.2886 7.137C17.7476 7.482 18.3456 7.581 18.8826 7.401L19.2216 7.288C19.7986 7.096 20.4126 7.143 20.9536 7.42C21.5086 7.704 21.9186 8.193 22.1066 8.798L22.8936 11.319C23.2736 12.537 22.6156 13.851 21.4286 14.248L21.2276 14.315C20.6516 14.509 20.1986 14.989 20.0176 15.601C19.8516 16.162 19.9476 16.779 20.2766 17.253L20.5366 17.628C21.2506 18.66 21.0226 20.108 20.0286 20.857L17.9676 22.413C17.4726 22.787 16.8656 22.938 16.2566 22.841C15.6426 22.742 15.1066 22.402 14.7476 21.884L14.6296 21.712C14.2796 21.208 13.7196 20.902 13.1326 20.935C12.5446 20.951 12.0366 21.23 11.7046 21.702L11.4736 22.03C11.1116 22.543 10.5746 22.878 9.96358 22.974C9.84658 22.992 9.73058 23 9.61558 23ZM13.0018 11.4999C12.1748 11.4999 11.5018 12.1729 11.5018 12.9999C11.5018 13.8269 12.1748 14.4999 13.0018 14.4999C13.8288 14.4999 14.5018 13.8269 14.5018 12.9999C14.5018 12.1729 13.8288 11.4999 13.0018 11.4999ZM13.0018 16.4999C11.0718 16.4999 9.50178 14.9299 9.50178 12.9999C9.50178 11.0699 11.0718 9.4999 13.0018 9.4999C14.9318 9.4999 16.5018 11.0699 16.5018 12.9999C16.5018 14.9299 14.9318 16.4999 13.0018 16.4999Z" fill="#CDCDCD"/>
</g>
</svg>
