<svg width="26" height="26" viewBox="0 0 26 26" fill="none" xmlns="http://www.w3.org/2000/svg">
<path fill-rule="evenodd" clip-rule="evenodd" d="M19.4993 20.5833C18.9014 20.5833 18.416 20.098 18.416 19.5C18.416 18.902 18.9014 18.4167 19.4993 18.4167C20.0973 18.4167 20.5827 18.902 20.5827 19.5C20.5827 20.098 20.0973 20.5833 19.4993 20.5833ZM5.41602 14.0833C4.81802 14.0833 4.33268 13.598 4.33268 13C4.33268 12.402 4.81802 11.9167 5.41602 11.9167C6.01402 11.9167 6.49935 12.402 6.49935 13C6.49935 13.598 6.01402 14.0833 5.41602 14.0833ZM19.4993 5.41667C20.0973 5.41667 20.5827 5.902 20.5827 6.5C20.5827 7.098 20.0973 7.58333 19.4993 7.58333C18.9014 7.58333 18.416 7.098 18.416 6.5C18.416 5.902 18.9014 5.41667 19.4993 5.41667ZM19.4993 16.25C18.6143 16.25 17.8126 16.6075 17.2254 17.1828L8.62918 13.3629C8.64327 13.2427 8.66602 13.1235 8.66602 13C8.66602 12.8765 8.64327 12.7573 8.62918 12.6371L17.2254 8.81725C17.8126 9.3925 18.6143 9.75 19.4993 9.75C21.2912 9.75 22.7493 8.29183 22.7493 6.5C22.7493 4.70817 21.2912 3.25 19.4993 3.25C17.7075 3.25 16.2493 4.70817 16.2493 6.5C16.2493 6.6235 16.2721 6.74267 16.2862 6.86292L7.68993 10.6828C7.10277 10.1075 6.3011 9.75 5.41602 9.75C3.62418 9.75 2.16602 11.2082 2.16602 13C2.16602 14.7918 3.62418 16.25 5.41602 16.25C6.3011 16.25 7.10277 15.8925 7.68993 15.3173L16.2862 19.1371C16.2721 19.2573 16.2493 19.3765 16.2493 19.5C16.2493 21.2918 17.7075 22.75 19.4993 22.75C21.2912 22.75 22.7493 21.2918 22.7493 19.5C22.7493 17.7082 21.2912 16.25 19.4993 16.25Z" fill="#4776E6"/>
</svg>
