<svg width="19" height="22" viewBox="0 0 19 22" fill="none" xmlns="http://www.w3.org/2000/svg">
<path d="M6 11L5.21913 10.3753L4.71938 11L5.21913 11.6247L6 11ZM18 12C18.5523 12 19 11.5523 19 11C19 10.4477 18.5523 10 18 10V12ZM9.21913 5.3753L5.21913 10.3753L6.78087 11.6247L10.7809 6.6247L9.21913 5.3753ZM5.21913 11.6247L9.21913 16.6247L10.7809 15.3753L6.78087 10.3753L5.21913 11.6247ZM6 12H18V10H6V12Z" fill="#FD1832"/>
<path d="M15 6.13193V5.61204C15 3.46614 15 2.3932 14.3104 1.79511C13.6208 1.19703 12.5586 1.34877 10.4343 1.65224L6.15147 2.26408C3.69534 2.61495 2.46728 2.79039 1.73364 3.63628C1 4.48217 1 5.72271 1 8.20377V13.7962C1 16.2773 1 17.5178 1.73364 18.3637C2.46728 19.2096 3.69534 19.385 6.15147 19.7359L10.4343 20.3478C12.5586 20.6512 13.6208 20.803 14.3104 20.2049C15 19.6068 15 18.5339 15 16.388V16.066" stroke="#FD1832" stroke-width="2"/>
</svg>
