<svg width="95%" height="95%" viewBox="0 0 593 258" fill="none" xmlns="http://www.w3.org/2000/svg">
<path class="path_1" d="M184.37 156.203V200.891H4.24512L0.807617 165.484L101.354 3.75H147.073L97.4014 85.0469L56.1514 156.203H184.37ZM159.104 3.75V254H101.183V3.75H159.104ZM384.089 106.016V151.734C384.089 169.724 381.969 185.365 377.729 198.656C373.604 211.948 367.646 222.948 359.854 231.656C352.177 240.365 343.011 246.839 332.354 251.078C321.698 255.318 309.953 257.438 297.12 257.438C286.808 257.438 277.183 256.12 268.245 253.484C259.308 250.734 251.229 246.609 244.011 241.109C236.907 235.495 230.776 228.505 225.62 220.141C220.464 211.776 216.511 201.922 213.761 190.578C211.011 179.12 209.636 166.172 209.636 151.734V106.016C209.636 87.9115 211.698 72.2708 215.823 59.0938C220.063 45.8021 226.078 34.8021 233.87 26.0938C241.662 17.3854 250.886 10.9115 261.542 6.67188C272.198 2.43229 283.943 0.3125 296.776 0.3125C307.089 0.3125 316.657 1.6875 325.479 4.4375C334.417 7.07292 342.495 11.1979 349.714 16.8125C356.933 22.3125 363.063 29.2448 368.104 37.6094C373.261 45.974 377.214 55.8854 379.964 67.3438C382.714 78.6875 384.089 91.5781 384.089 106.016ZM326.167 158.781V98.625C326.167 90.6042 325.709 83.6146 324.792 77.6562C323.99 71.6979 322.729 66.6562 321.011 62.5312C319.407 58.4062 317.401 55.0833 314.995 52.5625C312.589 49.9271 309.839 48.0365 306.745 46.8906C303.766 45.6302 300.443 45 296.776 45C292.193 45 288.068 45.974 284.401 47.9219C280.849 49.7552 277.813 52.7344 275.292 56.8594C272.771 60.9844 270.823 66.4844 269.448 73.3594C268.188 80.2344 267.558 88.6562 267.558 98.625V158.781C267.558 166.917 267.959 174.021 268.761 180.094C269.677 186.052 270.938 191.151 272.542 195.391C274.261 199.516 276.323 202.896 278.729 205.531C281.136 208.052 283.886 209.885 286.979 211.031C290.073 212.177 293.453 212.75 297.12 212.75C301.589 212.75 305.599 211.833 309.151 210C312.703 208.167 315.74 205.188 318.261 201.062C320.896 196.823 322.844 191.266 324.104 184.391C325.479 177.401 326.167 168.865 326.167 158.781ZM592.745 156.203V200.891H412.62L409.183 165.484L509.729 3.75H555.448L505.776 85.0469L464.526 156.203H592.745ZM567.479 3.75V254H509.558V3.75H567.479Z" fill="url(#paint0_linear_996_17020)"/>
<defs>
<linearGradient id="paint0_linear_996_17020" x1="806.667" y1="-434.139" x2="650.661" y2="774.877" gradientUnits="userSpaceOnUse">
<stop class="stop_1" />
<stop class="stop_2" offset="1" />
</linearGradient>
</defs>
</svg>
