<svg width="38" height="38" viewBox="0 0 58 58" fill="none" xmlns="http://www.w3.org/2000/svg">
<rect width="58" height="58" rx="10" fill="#192741"/>
<path fill-rule="evenodd" clip-rule="evenodd" d="M43.2381 21.0247C43.2349 20.9108 43.2017 20.8031 43.1716 20.6938C43.1479 20.602 43.1368 20.5086 43.0972 20.4247C43.0608 20.3423 42.999 20.2758 42.9452 20.1998C42.8787 20.1033 42.8185 20.0067 42.733 19.9275C42.7188 19.9133 42.7125 19.8943 42.6966 19.8816C42.6396 19.8325 42.57 19.8151 42.5082 19.7755C42.4132 19.7137 42.3198 19.6504 42.2121 19.6093C42.106 19.5712 42.0015 19.5617 41.8923 19.5459C41.8163 19.5348 41.7482 19.5 41.6674 19.5H33.7508C32.8752 19.5 32.1675 20.2093 32.1675 21.0833C32.1675 21.9573 32.8752 22.6667 33.7508 22.6667H38.2253L31.835 30.121L25.0646 26.0598C24.3949 25.6544 23.5335 25.8033 23.0332 26.4033L15.1165 35.9033C14.5576 36.5747 14.6479 37.5737 15.3192 38.1327C15.6169 38.3797 15.9747 38.5 16.3325 38.5C16.787 38.5 17.2366 38.3068 17.5501 37.93L24.5991 29.4718L31.352 33.5252C32.0154 33.9226 32.8673 33.7833 33.3692 33.1974L40.0841 25.3631V29C40.0841 29.874 40.7919 30.5833 41.6674 30.5833C42.543 30.5833 43.2508 29.874 43.2508 29V21.0833C43.2508 21.0627 43.2397 21.0453 43.2381 21.0247Z" fill="#CDCDCD"/>
</svg>
