<svg width="68" height="34" viewBox="0 0 68 34" fill="none" xmlns="http://www.w3.org/2000/svg">
<path fill-rule="evenodd" clip-rule="evenodd" d="M65.9767 21.8857C64.4345 20.7704 62.2516 20.7549 61.1069 21.8604C55.1615 27.5806 44.8768 29.1287 34.9025 25.7979C26.0843 22.8533 19.2872 16.5379 16.9951 9.43282L22.2998 11.9931C22.4765 12.0811 22.6584 12.1534 22.8404 12.2142C24.4618 12.7556 26.1934 12.3275 26.8925 11.1428C27.6707 9.8221 26.8798 8.06154 25.1202 7.21586L11.4092 0.589862C11.0322 0.40598 10.6485 0.309736 10.262 0.232882C10.2165 0.223467 10.1728 0.197271 10.1263 0.190466C9.71689 0.126248 9.32363 0.137031 8.94176 0.192223C8.89858 0.198105 8.84628 0.186439 8.80223 0.19493C8.52108 0.240251 8.2823 0.360625 8.03266 0.468669C7.90615 0.522128 7.76302 0.546835 7.64988 0.616359C7.47637 0.720824 7.36482 0.886581 7.22566 1.02282C7.10096 1.14939 6.93855 1.24306 6.84408 1.39132L0.834195 10.9849C0.017264 12.2868 0.764981 14.0533 2.50736 14.928C2.70589 15.0291 2.90966 15.1146 3.11528 15.1832C4.7097 15.7157 6.41733 15.3144 7.13642 14.1595L10.1018 9.43074C12.8348 18.8059 21.6585 27.1756 33.1599 31.0163C45.8916 35.2678 59.0572 33.2607 66.6996 25.903C67.8469 24.8013 67.5222 23.0021 65.9767 21.8857Z" fill="#E3E3E3"/>
</svg>
