<svg width="42" height="42" viewBox="0 0 42 42" fill="none" xmlns="http://www.w3.org/2000/svg">
<path d="M21 41C32.0457 41 41 32.0457 41 21C41 9.9543 32.0457 1 21 1C9.9543 1 1 9.9543 1 21C1 32.0457 9.9543 41 21 41Z" fill="#6C747D" stroke="#CDCDCD" stroke-width="1.5"/>
<path d="M11 33V31C11 25.4772 15.4772 21 21 21C26.5228 21 31 25.4772 31 31V33" fill="#6C747D"/>
<path d="M11 33V31C11 25.4772 15.4772 21 21 21C26.5228 21 31 25.4772 31 31V33" stroke="#CDCDCD" stroke-width="1.5" stroke-linecap="round"/>
<path d="M21 21C24.3138 21 27 18.3138 27 15C27 11.6863 24.3138 9 21 9C17.6862 9 15 11.6863 15 15C15 18.3138 17.6862 21 21 21Z" fill="#6C747D" stroke="#CDCDCD" stroke-width="1.5" stroke-linecap="round" stroke-linejoin="round"/>
</svg>
