<svg width="10" height="13" viewBox="0 0 10 13" xmlns="http://www.w3.org/2000/svg">
<path fill-rule="evenodd" clip-rule="evenodd" d="M9.375 11.8056C9.375 12.1889 9.07567 12.5 8.70536 12.5C8.33504 12.5 8.03571 12.1889 8.03571 11.8056C8.03571 9.89097 6.53371 8.33333 4.6875 8.33333C2.84129 8.33333 1.33929 9.89097 1.33929 11.8056C1.33929 12.1889 1.03996 12.5 0.669643 12.5C0.29933 12.5 0 12.1889 0 11.8056C0 9.125 2.10335 6.94444 4.6875 6.94444C7.27165 6.94444 9.375 9.125 9.375 11.8056ZM4.6875 1.38889C5.42612 1.38889 6.02679 2.01181 6.02679 2.77778C6.02679 3.54375 5.42612 4.16667 4.6875 4.16667C3.94888 4.16667 3.34821 3.54375 3.34821 2.77778C3.34821 2.01181 3.94888 1.38889 4.6875 1.38889ZM4.6875 5.55556C6.16473 5.55556 7.36607 4.30972 7.36607 2.77778C7.36607 1.24583 6.16473 0 4.6875 0C3.21027 0 2.00893 1.24583 2.00893 2.77778C2.00893 4.30972 3.21027 5.55556 4.6875 5.55556Z" fill="white"/>
</svg>
