<svg width="25" height="20" viewBox="0 0 17 12" fill="none" xmlns="http://www.w3.org/2000/svg">
<path opacity="0.5" fill-rule="evenodd" clip-rule="evenodd" d="M8.33337 7.08416C7.64421 7.08416 7.08337 6.52333 7.08337 5.83416C7.08337 5.145 7.64421 4.58416 8.33337 4.58416C9.02254 4.58416 9.58337 5.145 9.58337 5.83416C9.58337 6.52333 9.02254 7.08416 8.33337 7.08416ZM8.33341 2.91797C6.72508 2.91797 5.41674 4.2263 5.41674 5.83463C5.41674 7.44297 6.72508 8.7513 8.33341 8.7513C9.94174 8.7513 11.2501 7.44297 11.2501 5.83463C11.2501 4.2263 9.94174 2.91797 8.33341 2.91797ZM8.5165 9.9991C4.92816 10.0824 2.58733 7.01327 1.81066 5.83077C2.66566 4.49327 4.819 1.75494 8.15066 1.66994C11.7248 1.5791 14.079 4.65577 14.8557 5.83827C14.0015 7.17577 11.8473 9.9141 8.5165 9.9991ZM16.5565 5.41966C16.0248 4.493 13.0881 -0.152002 8.10812 0.00383095C3.50146 0.120498 0.822292 4.17883 0.110625 5.41966C-0.036875 5.67633 -0.036875 5.99216 0.110625 6.24883C0.634792 7.163 3.46812 11.6672 8.35396 11.6672C8.42229 11.6672 8.49062 11.6663 8.55896 11.6647C13.1648 11.5472 15.8448 7.48966 16.5565 6.24883C16.7031 5.99216 16.7031 5.67633 16.5565 5.41966Z" fill="#CDCDCD"/>
</svg>
